<?xml version="1.0" encoding="utf-8"?>
<!-- Generator: Adobe Illustrator 16.0.0, SVG Export Plug-In . SVG Version: 6.00 Build 0)  -->
<!DOCTYPE svg PUBLIC "-//W3C//DTD SVG 1.1//EN" "http://www.w3.org/Graphics/SVG/1.1/DTD/svg11.dtd">
<svg version="1.1" id="Layer_1" xmlns="http://www.w3.org/2000/svg" xmlns:xlink="http://www.w3.org/1999/xlink" x="0px" y="0px"
	 width="325px" height="183px" viewBox="0 0 325 183" enable-background="new 0 0 325 183" xml:space="preserve">
<g>
	<circle fill="none" stroke="#000000" stroke-width="6" stroke-miterlimit="10" cx="65.91" cy="117.825" r="57.381"/>
	<circle fill="#FFFFFF" stroke="#000000" stroke-width="2.5394" stroke-miterlimit="10" cx="65.91" cy="117.825" r="12.714"/>
	<line fill="none" stroke="#000000" stroke-width="2" stroke-miterlimit="10" x1="72.888" y1="107.203" x2="98.291" y2="73.206"/>
	<line fill="none" stroke="#000000" stroke-width="2" stroke-miterlimit="10" x1="67.964" y1="105.282" x2="77.343" y2="63.893"/>
	<line fill="none" stroke="#000000" stroke-width="2" stroke-miterlimit="10" x1="62.685" y1="105.53" x2="54.418" y2="63.906"/>
	<line fill="none" stroke="#000000" stroke-width="2" stroke-miterlimit="10" x1="57.963" y1="107.905" x2="33.48" y2="73.241"/>
	<line fill="none" stroke="#000000" stroke-width="2" stroke-miterlimit="10" x1="54.615" y1="111.995" x2="18.15" y2="90.286"/>
	<line fill="none" stroke="#000000" stroke-width="2" stroke-miterlimit="10" x1="53.22" y1="117.093" x2="11.078" y2="112.093"/>
	<line fill="none" stroke="#000000" stroke-width="2" stroke-miterlimit="10" x1="54.019" y1="122.317" x2="13.486" y2="134.891"/>
	<line fill="none" stroke="#000000" stroke-width="2" stroke-miterlimit="10" x1="56.873" y1="126.765" x2="24.96" y2="154.737"/>
	<line fill="none" stroke="#000000" stroke-width="2" stroke-miterlimit="10" x1="61.29" y1="129.667" x2="43.514" y2="168.202"/>
	<line fill="none" stroke="#000000" stroke-width="2" stroke-miterlimit="10" x1="66.506" y1="130.522" x2="65.939" y2="172.956"/>
	<line fill="none" stroke="#000000" stroke-width="2" stroke-miterlimit="10" x1="71.619" y1="129.183" x2="88.36" y2="168.177"/>
	<line fill="none" stroke="#000000" stroke-width="2" stroke-miterlimit="10" x1="75.745" y1="125.878" x2="106.898" y2="154.692"/>
	<line fill="none" stroke="#000000" stroke-width="2" stroke-miterlimit="10" x1="78.17" y1="121.181" x2="118.35" y2="134.833"/>
	<line fill="none" stroke="#000000" stroke-width="2" stroke-miterlimit="10" x1="78.475" y1="115.903" x2="120.733" y2="112.033"/>
	<line fill="none" stroke="#000000" stroke-width="2" stroke-miterlimit="10" x1="76.606" y1="110.959" x2="113.638" y2="90.235"/>
	<circle fill="none" stroke="#000000" stroke-width="6" stroke-miterlimit="10" cx="257.55" cy="117.825" r="57.381"/>
	<circle fill="#FFFFFF" stroke="#000000" stroke-width="2.5394" stroke-miterlimit="10" cx="257.55" cy="117.825" r="12.714"/>
	<line fill="none" stroke="#000000" stroke-width="2" stroke-miterlimit="10" x1="264.527" y1="107.203" x2="289.931" y2="73.206"/>
	<line fill="none" stroke="#000000" stroke-width="2" stroke-miterlimit="10" x1="259.604" y1="105.282" x2="268.982" y2="63.894"/>
	<line fill="none" stroke="#000000" stroke-width="2" stroke-miterlimit="10" x1="254.324" y1="105.53" x2="246.058" y2="63.905"/>
	<line fill="none" stroke="#000000" stroke-width="2" stroke-miterlimit="10" x1="249.603" y1="107.905" x2="225.12" y2="73.241"/>
	<line fill="none" stroke="#000000" stroke-width="2" stroke-miterlimit="10" x1="246.255" y1="111.995" x2="209.79" y2="90.286"/>
	
		<line fill="none" stroke="#000000" stroke-width="2" stroke-miterlimit="10" x1="244.859" y1="117.093" x2="202.718" y2="112.093"/>
	
		<line fill="none" stroke="#000000" stroke-width="2" stroke-miterlimit="10" x1="245.658" y1="122.317" x2="205.126" y2="134.891"/>
	<line fill="none" stroke="#000000" stroke-width="2" stroke-miterlimit="10" x1="248.513" y1="126.765" x2="216.6" y2="154.737"/>
	<line fill="none" stroke="#000000" stroke-width="2" stroke-miterlimit="10" x1="252.93" y1="129.667" x2="235.153" y2="168.202"/>
	
		<line fill="none" stroke="#000000" stroke-width="2" stroke-miterlimit="10" x1="258.146" y1="130.522" x2="257.579" y2="172.956"/>
	<line fill="none" stroke="#000000" stroke-width="2" stroke-miterlimit="10" x1="263.259" y1="129.183" x2="280" y2="168.177"/>
	
		<line fill="none" stroke="#000000" stroke-width="2" stroke-miterlimit="10" x1="267.385" y1="125.878" x2="298.538" y2="154.692"/>
	<line fill="none" stroke="#000000" stroke-width="2" stroke-miterlimit="10" x1="269.81" y1="121.181" x2="309.989" y2="134.833"/>
	
		<line fill="none" stroke="#000000" stroke-width="2" stroke-miterlimit="10" x1="270.114" y1="115.903" x2="312.373" y2="112.033"/>
	<line fill="none" stroke="#000000" stroke-width="2" stroke-miterlimit="10" x1="268.246" y1="110.959" x2="305.277" y2="90.235"/>
	<circle fill="#FFFFFF" stroke="#000000" stroke-width="5" stroke-miterlimit="10" cx="148.177" cy="132.224" r="14.381"/>
	<polyline fill="none" stroke="#000000" stroke-width="5" stroke-miterlimit="10" points="257.55,117.825 223.789,32.333 
		148.177,132.223 65.91,117.825 123.291,46.333 223.789,32.333 	"/>
	<circle fill="none" stroke="#000000" stroke-width="3" stroke-miterlimit="10" cx="148.177" cy="132.223" r="3.637"/>
	<line fill="none" stroke="#000000" stroke-width="3" stroke-miterlimit="10" x1="145.474" y1="135.56" x2="141.728" y2="143.5"/>
	
		<line fill="none" stroke="#000000" stroke-width="3" stroke-miterlimit="10" x1="151.174" y1="134.281" x2="157.685" y2="140.129"/>
	<path fill="none" stroke="#000000" stroke-width="3" stroke-miterlimit="10" d="M157.685,159.5"/>
	<line fill="none" stroke="#000000" stroke-width="5" stroke-miterlimit="10" x1="158.496" y1="161.795" x2="113.638" y2="21.5"/>
	<path fill="none" stroke="#000000" stroke-width="5" stroke-miterlimit="10" d="M223.789,32.333L216.6,12h27.441
		c0,0,10.178,14.5,0.818,15.5"/>
	<path stroke="#000000" stroke-miterlimit="10" d="M129.592,18.278c0,0-23.884,5.651-29.988,4.485s-7.396-16.666,0-15.166
		s13.363,5.5,21.129,5s21.643-6.339,15.333,0C129.283,19.413,129.592,18.278,129.592,18.278z"/>
	<path fill="#0C0D17" stroke="#000000" stroke-width="0.8965" stroke-miterlimit="10" d="M247.481,27.096
		c0.235,1.291-0.62,2.529-1.912,2.766l-4.218,0.771c-1.292,0.235-2.531-0.621-2.767-1.913l0,0c-0.235-1.292,0.62-2.53,1.912-2.766
		l4.219-0.771C246.007,24.946,247.246,25.803,247.481,27.096L247.481,27.096z"/>
	<path stroke="#000000" stroke-width="0.8965" stroke-miterlimit="10" d="M71.619,117.825c0,3.153-2.556,5.709-5.709,5.709l0,0
		c-3.153,0-5.709-2.556-5.709-5.709l0,0c0-3.153,2.556-5.709,5.709-5.709l0,0C69.063,112.116,71.619,114.672,71.619,117.825
		L71.619,117.825z"/>
	<circle stroke="#000000" stroke-miterlimit="10" cx="257.55" cy="117.825" r="4.492"/>
	<path stroke="#000000" stroke-miterlimit="10" d="M164.964,159.881c0.419,1.417-0.389,2.906-1.807,3.325l-7.805,2.31
		c-1.417,0.419-2.906-0.391-3.325-1.807l0,0c-0.419-1.417,0.389-2.906,1.807-3.325l7.805-2.31
		C163.057,157.655,164.545,158.465,164.964,159.881L164.964,159.881z"/>
</g>
</svg>
