<?xml version="1.0" encoding="utf-8"?>
<!-- Generator: Adobe Illustrator 16.0.0, SVG Export Plug-In . SVG Version: 6.00 Build 0)  -->
<!DOCTYPE svg PUBLIC "-//W3C//DTD SVG 1.1//EN" "http://www.w3.org/Graphics/SVG/1.1/DTD/svg11.dtd">
<svg version="1.1" id="Layer_1" xmlns="http://www.w3.org/2000/svg" xmlns:xlink="http://www.w3.org/1999/xlink" x="0px" y="0px"
	 width="312px" height="199.875px" viewBox="0 0 312 199.875" enable-background="new 0 0 312 199.875" xml:space="preserve">
<g>
	<g>
		<path d="M278.732,165.227c-0.121,2.025-0.965,5.166-1.876,6.979l-4.263,3.709c-1.892,0.733-5.1,1.334-7.129,1.334H46.551
			c-2.029,0-5.237-0.601-7.129-1.334l-4.263-3.709c-0.911-1.813-1.755-4.954-1.876-6.979l-3.814-63.861
			c-0.121-2.025,0.519-5.169,1.422-6.987l4.289-3.765c1.885-0.75,5.088-1.364,7.117-1.364h227.421c2.029,0,5.232,0.614,7.117,1.364
			l4.289,3.765c0.903,1.817,1.543,4.961,1.422,6.987L278.732,165.227z"/>
	</g>
	<path d="M76.324,181.622c0,4.695-7.257,8.503-16.21,8.503H49.798c-8.953,0-16.21-3.808-16.21-8.503v-17.007
		c0-4.695,7.257-8.503,16.21-8.503h10.315c8.953,0,16.21,3.808,16.21,8.503V181.622z"/>
	<path d="M278.23,181.622c0,4.695-7.258,8.503-16.211,8.503h-10.314c-8.953,0-16.211-3.808-16.211-8.503v-17.007
		c0-4.695,7.258-8.503,16.211-8.503h10.314c8.953,0,16.211,3.808,16.211,8.503V181.622z"/>
	<circle fill="#FFFFFF" cx="50.125" cy="110.75" r="11.125"/>
	<circle fill="#FFFFFF" cx="70.463" cy="114.139" r="7.735"/>
	<circle fill="#FFFFFF" cx="257" cy="110.749" r="11.125"/>
	<circle fill="#FFFFFF" cx="236.662" cy="114.139" r="7.735"/>
	<path fill="#FFFFFF" d="M232.999,159.891c0,4.175-3.714,7.559-8.295,7.559H87.844c-4.581,0-8.294-3.384-8.294-7.559l0,0
		c0-4.175,3.713-7.559,8.294-7.559h136.86C229.285,152.333,232.999,155.716,232.999,159.891L232.999,159.891z"/>
	<path fill="#020202" d="M29.782,96.799c0,0,16.589-78,29.031-82.875c12.442-4.875,99.535-4.875,99.535-4.875v87.75H29.782z"/>
	<path fill="#020202" d="M282.858,96.8c0,0-16.076-78-28.135-82.875C242.667,9.05,158.262,9.05,158.262,9.05V96.8H282.858z"/>
	<path fill="#FFFFFF" d="M259.69,74.916c0,6.075-4.651,11-10.389,11H60.906c-5.737,0-10.388-4.925-10.388-11l9.208-42
		c0-6.075,4.65-11,10.388-11h169.155c5.737,0,10.389,4.925,10.389,11L259.69,74.916z"/>
	<path fill="#FFFFFF" d="M214.5,141.375c0,2.692-1.857,4.875-4.146,4.875H98.376c-2.291,0-4.147-2.183-4.147-4.875l0,0
		c0-2.692,1.857-4.875,4.147-4.875h111.978C212.643,136.5,214.5,138.682,214.5,141.375L214.5,141.375z"/>
	<g>
		<path fill="#070808" d="M37.211,81.577c0.984-1.968,1.353-5.324,0.819-7.458L35.095,62.38c-0.534-2.134-2.77-3.88-4.97-3.88H13.75
			c-2.2,0-4,1.8-4,4v6.625c0,2.2,1.8,4,4,4h6.625c2.2,0,4.999,1.498,6.219,3.328l5.313,7.969c1.22,1.831,3.024,1.718,4.008-0.25
			L37.211,81.577z"/>
	</g>
	<g>
		<path fill="#070808" d="M274.789,81.577c-0.984-1.968-1.353-5.324-0.819-7.458l2.936-11.739c0.533-2.134,2.77-3.88,4.97-3.88
			h16.375c2.2,0,4,1.8,4,4v6.625c0,2.2-1.8,4-4,4h-6.625c-2.2,0-4.998,1.498-6.219,3.328l-5.313,7.969
			c-1.221,1.831-3.023,1.718-4.008-0.25L274.789,81.577z"/>
	</g>
	<ellipse cx="151.125" cy="80.437" rx="112.125" ry="21.938"/>
</g>
</svg>
