<?xml version="1.0" encoding="utf-8"?>
<!-- Generator: Adobe Illustrator 16.0.0, SVG Export Plug-In . SVG Version: 6.00 Build 0)  -->
<!DOCTYPE svg PUBLIC "-//W3C//DTD SVG 1.1//EN" "http://www.w3.org/Graphics/SVG/1.1/DTD/svg11.dtd">
<svg version="1.1" id="Layer_1" xmlns="http://www.w3.org/2000/svg" xmlns:xlink="http://www.w3.org/1999/xlink" x="0px" y="0px"
	 width="212.5px" height="104.089px" viewBox="0 0 212.5 104.089" enable-background="new 0 0 212.5 104.089" xml:space="preserve">
<path fill="#FFFFFF" stroke="#010101" stroke-width="2" stroke-miterlimit="10" d="M96.606,33.55C91.479,26.549,83.203,22,73.86,22
	c-9.334,0-17.604,4.542-22.733,11.533c-0.852-0.104-1.718-0.165-2.598-0.165c-8.391,0-15.639,4.889-19.052,11.973
	C22.579,47.195,17.5,53.489,17.5,60.973c0,8.941,7.248,16.188,16.188,16.188c3.155,0,6.097-0.905,8.585-2.466
	c1.977,0.611,4.078,0.941,6.256,0.941c3.38,0,6.573-0.798,9.406-2.209c4.531,3.109,10.015,4.933,15.925,4.933
	c5.343,0,10.338-1.487,14.596-4.069c2.187,0.771,4.538,1.197,6.989,1.197c11.59,0,20.985-9.396,20.985-20.986
	C116.431,43.302,107.656,34.153,96.606,33.55z"/>
<path fill="#FFFFFF" stroke="#010101" stroke-width="2" stroke-miterlimit="10" d="M178.372,46.5
	c-5.706-7.79-14.913-12.852-25.31-12.852c-10.386,0-19.589,5.053-25.296,12.832c-0.947-0.116-1.911-0.184-2.89-0.184
	c-9.337,0-17.402,5.439-21.2,13.323c-7.675,2.063-13.327,9.066-13.327,17.394c0,9.948,8.064,18.013,18.013,18.013
	c3.512,0,6.784-1.007,9.553-2.743c2.199,0.681,4.538,1.048,6.962,1.048c3.76,0,7.313-0.889,10.465-2.458
	c5.043,3.46,11.144,5.488,17.721,5.488c5.944,0,11.503-1.655,16.24-4.528c2.434,0.859,5.05,1.332,7.777,1.332
	c12.896,0,23.351-10.455,23.351-23.351C200.431,57.351,190.667,47.171,178.372,46.5z"/>
</svg>
