<?xml version="1.0" encoding="utf-8"?>
<!-- Generator: Adobe Illustrator 16.0.0, SVG Export Plug-In . SVG Version: 6.00 Build 0)  -->
<!DOCTYPE svg PUBLIC "-//W3C//DTD SVG 1.1//EN" "http://www.w3.org/Graphics/SVG/1.1/DTD/svg11.dtd">
<svg version="1.1" id="Layer_1" xmlns="http://www.w3.org/2000/svg" xmlns:xlink="http://www.w3.org/1999/xlink" x="0px" y="0px"
	 width="313.514px" height="74.324px" viewBox="0 0 313.514 74.324" enable-background="new 0 0 313.514 74.324"
	 xml:space="preserve">
<g>
	<g>
		<path fill="#010101" d="M37.584,12.467h208.144c4.358,0,10.979,1.729,14.712,3.987c0,0,70.521,42.558,39.602,42.558
			c-30.928,0-262.457,0-262.457,0"/>
		<path fill="none" stroke="#FFFFFF" stroke-width="0.9498" stroke-miterlimit="10" d="M37.584,11.994h208.144
			c4.358,0,10.979,2.203,14.712,4.461c0,0,70.521,43.032,39.602,43.032c-30.928,0-262.457,0-262.457,0"/>
	</g>
	<path fill="#010101" d="M161.066,20.396c0-4.378-3.557-7.929-7.93-7.929H36.969c-4.379,0-7.934,3.551-7.934,7.929v30.683
		c0,4.383,3.555,7.934,7.934,7.934h116.168c4.373,0,7.93-3.551,7.93-7.934V20.396z"/>
	<g>
		<g>
			<path fill="#FFFFFF" d="M246.548,19.117h6.906c1.077,0,2.731,0.328,3.684,0.818c0,0,18.932,9.63,10.666,9.63
				c-8.267,0-21.256,0-21.256,0"/>
		</g>
		<path fill="#FFFFFF" d="M255.096,24.343c0-2.887-2.336-5.227-5.223-5.227h-6.648c-2.885,0-5.227,2.34-5.227,5.227l0,0
			c0,2.885,2.342,5.222,5.227,5.222h6.648C252.76,29.565,255.096,27.228,255.096,24.343L255.096,24.343z"/>
	</g>
	<ellipse fill="#010101" cx="241.72" cy="58.06" rx="8.233" ry="6.965"/>
	<ellipse fill="#010101" cx="197.078" cy="58.06" rx="8.234" ry="6.965"/>
	<rect x="207.611" y="58.06" fill="#010101" width="22.795" height="2.849"/>
	<rect x="209.508" y="59.96" fill="#010101" width="7.592" height="1.896"/>
	<rect x="220.909" y="59.96" fill="#010101" width="7.597" height="1.896"/>
	<path fill="#010101" d="M213.545,13.619c0-0.419-0.291-0.827-0.828-1.219c-2.619-1.896-11.201-3.284-21.389-3.284
		c-12.266,0-22.208,2.017-22.208,4.503"/>
	<rect x="138.271" y="11.519" fill="#010101" width="18.046" height="3.8"/>
	<rect x="109.775" y="11.519" fill="#010101" width="18.047" height="3.8"/>
	<rect x="39.488" y="10.567" fill="#010101" width="2.848" height="4.752"/>
	<rect x="44.236" y="10.567" fill="#010101" width="2.849" height="4.752"/>
	<path fill="#010101" d="M118.242,51.095c4.545,0,8.232,3.118,8.232,6.965s-3.688,6.965-8.232,6.965
		c-4.55,0-8.232-3.118-8.232-6.965S113.692,51.095,118.242,51.095z"/>
	<path fill="#010101" d="M73.602,51.095c4.544,0,8.229,3.118,8.229,6.965s-3.685,6.965-8.229,6.965
		c-4.549,0-8.237-3.118-8.237-6.965S69.053,51.095,73.602,51.095z"/>
	<rect x="84.129" y="58.06" fill="#010101" width="22.795" height="2.849"/>
	<rect x="86.029" y="59.96" fill="#010101" width="7.597" height="1.896"/>
	<rect x="97.426" y="59.96" fill="#010101" width="7.598" height="1.896"/>
	<g>
		<g>
			<path fill="#FFFFFF" d="M231.354,20.068c0-0.523-0.424-0.951-0.947-0.951H217.1c-0.52,0-0.943,0.428-0.943,0.951v8.55
				c0,0.523,0.424,0.947,0.943,0.947h13.307c0.523,0,0.947-0.424,0.947-0.947V20.068z"/>
		</g>
		<g>
			<path fill="#FFFFFF" d="M213.309,20.068c0-0.523-0.429-0.951-0.957-0.951h-13.293c-0.529,0-0.948,0.428-0.948,0.951v8.55
				c0,0.523,0.419,0.947,0.948,0.947h13.293c0.528,0,0.957-0.424,0.957-0.947V20.068z"/>
		</g>
		<g>
			<path fill="#FFFFFF" d="M195.262,20.068c0-0.523-0.428-0.951-0.953-0.951h-13.297c-0.527,0-0.947,0.428-0.947,0.951v8.55
				c0,0.523,0.42,0.947,0.947,0.947h13.297c0.525,0,0.953-0.424,0.953-0.947V20.068z"/>
		</g>
		<g>
			<path fill="#FFFFFF" d="M177.216,20.068c0-0.523-0.429-0.951-0.952-0.951h-13.297c-0.524,0-0.953,0.428-0.953,0.951v8.55
				c0,0.523,0.429,0.947,0.953,0.947h13.297c0.523,0,0.952-0.424,0.952-0.947V20.068z"/>
		</g>
		<g>
			<path fill="#FFFFFF" d="M159.165,20.068c0-0.523-0.423-0.951-0.948-0.951H144.92c-0.523,0-0.952,0.428-0.952,0.951v8.55
				c0,0.523,0.429,0.947,0.952,0.947h13.297c0.525,0,0.948-0.424,0.948-0.947V20.068z"/>
		</g>
		<g>
			<path fill="#FFFFFF" d="M141.119,20.068c0-0.523-0.424-0.951-0.947-0.951h-13.299c-0.527,0-0.951,0.428-0.951,0.951v8.55
				c0,0.523,0.424,0.947,0.951,0.947h13.299c0.523,0,0.947-0.424,0.947-0.947V20.068z"/>
		</g>
		<g>
			<path fill="#FFFFFF" d="M123.073,20.068c0-0.523-0.424-0.951-0.952-0.951h-13.297c-0.524,0-0.948,0.428-0.948,0.951v8.55
				c0,0.523,0.424,0.947,0.948,0.947h13.297c0.528,0,0.952-0.424,0.952-0.947V20.068z"/>
		</g>
		<g>
			<path fill="#FFFFFF" d="M105.023,20.068c0-0.523-0.424-0.951-0.948-0.951H90.777c-0.523,0-0.947,0.428-0.947,0.951v8.55
				c0,0.523,0.424,0.947,0.947,0.947h13.298c0.524,0,0.948-0.424,0.948-0.947V20.068z"/>
		</g>
		<g>
			<path fill="#FFFFFF" d="M86.978,20.068c0-0.523-0.425-0.951-0.948-0.951H72.732c-0.529,0-0.953,0.428-0.953,0.951v8.55
				c0,0.523,0.424,0.947,0.953,0.947h13.297c0.523,0,0.948-0.424,0.948-0.947V20.068z"/>
		</g>
		<g>
			<path fill="#FFFFFF" d="M68.932,20.068c0-0.523-0.424-0.951-0.953-0.951H54.682c-0.524,0-0.947,0.428-0.947,0.951v8.55
				c0,0.523,0.423,0.947,0.947,0.947h13.297c0.529,0,0.953-0.424,0.953-0.947V20.068z"/>
		</g>
		<g>
			<path fill="#FFFFFF" d="M50.885,20.068c0-0.523-0.428-0.951-0.951-0.951H36.637c-0.525,0-0.949,0.428-0.949,0.951v8.55
				c0,0.523,0.424,0.947,0.949,0.947h13.297c0.523,0,0.951-0.424,0.951-0.947V20.068z"/>
		</g>
	</g>
	<g>
		<rect x="8.764" y="53.307" fill="#010101" width="30.725" height="3.801"/>
	</g>
	<g>
		<path fill="#010101" d="M16.52,55.212c0,1.571,1.275,2.848,2.848,2.848h1.9c1.576,0,2.855-1.276,2.855-2.848l0,0
			c0-1.572-1.279-2.853-2.855-2.853h-1.9C17.795,52.36,16.52,53.64,16.52,55.212L16.52,55.212z"/>
	</g>
	<g>
		<rect x="24.285" y="56.16" fill="#010101" width="4.754" height="1.9"/>
	</g>
	<g>
		<rect x="10.988" y="56.16" fill="#010101" width="4.753" height="1.9"/>
	</g>
	
		<line fill="none" stroke="#FFFFFF" stroke-width="1.2706" stroke-miterlimit="10" x1="26.678" y1="36.688" x2="298.443" y2="36.688"/>
	
		<line fill="none" stroke="#FFFFFF" stroke-width="1.2706" stroke-miterlimit="10" x1="26.678" y1="44.168" x2="300.012" y2="44.285"/>
</g>
</svg>
