<?xml version="1.0" encoding="utf-8"?>
<!-- Generator: Adobe Illustrator 16.0.0, SVG Export Plug-In . SVG Version: 6.00 Build 0)  -->
<!DOCTYPE svg PUBLIC "-//W3C//DTD SVG 1.1//EN" "http://www.w3.org/Graphics/SVG/1.1/DTD/svg11.dtd">
<svg version="1.1" id="Layer_1" xmlns="http://www.w3.org/2000/svg" xmlns:xlink="http://www.w3.org/1999/xlink" x="0px" y="0px"
	 width="961px" height="461px" viewBox="0 0 961 461" enable-background="new 0 0 961 461" xml:space="preserve">
<path fill="#010101" d="M583,417"/>
<path fill="none" stroke="#010101" stroke-miterlimit="10" d="M327.75,425.625"/>
<g>
	<polygon fill="#FFFFFF" points="936,416 790,416 790,349 936,350 	"/>
	<g>
		<path fill="none" stroke="#010101" stroke-width="2" stroke-miterlimit="10" d="M936,248v104c0,2.75,0,7.25,0,10v54"/>
	</g>
</g>
<g>
	<path fill="none" stroke="#010101" stroke-width="2" stroke-miterlimit="10" d="M790,416v-62c0-2.75,2.25-5,5-5h122.75
		c2.75,0,5.25-2.25,5.25-5v-97"/>
</g>
<g>
	<g>
		<path fill="none" stroke="#010101" stroke-width="2" stroke-miterlimit="10" d="M916,416v-22.498c0-4.072,3.676-6.502,7.748-6.502
			h0.379c4.072,0,6.873,2.43,6.873,6.502V416"/>
	</g>
	<g>
		<path fill="none" stroke="#010101" stroke-width="2" stroke-miterlimit="10" d="M896,416v-22.498c0-4.072,3.676-6.502,7.748-6.502
			h0.379c4.072,0,6.873,2.43,6.873,6.502V416"/>
	</g>
	<g>
		<path fill="none" stroke="#010101" stroke-width="2" stroke-miterlimit="10" d="M876,416v-22.498c0-4.072,3.676-6.502,7.748-6.502
			h0.379c4.072,0,6.873,2.43,6.873,6.502V416"/>
	</g>
	<g>
		<path fill="none" stroke="#010101" stroke-width="2" stroke-miterlimit="10" d="M856,416v-22.498c0-4.072,3.676-6.502,7.748-6.502
			h0.379c4.072,0,6.873,2.43,6.873,6.502V416"/>
	</g>
	<g>
		<path fill="none" stroke="#010101" stroke-width="2" stroke-miterlimit="10" d="M836,416v-22.498c0-4.072,3.676-6.502,7.748-6.502
			h0.379c4.072,0,6.873,2.43,6.873,6.502V416"/>
	</g>
	<g>
		<path fill="none" stroke="#010101" stroke-width="2" stroke-miterlimit="10" d="M816,416v-22.498c0-4.072,3.676-6.502,7.748-6.502
			h0.379c4.072,0,6.873,2.43,6.873,6.502V416"/>
	</g>
	<g>
		<path fill="none" stroke="#010101" stroke-width="2" stroke-miterlimit="10" d="M796,416v-22.498c0-4.072,3.676-6.502,7.748-6.502
			h0.379c4.072,0,6.873,2.43,6.873,6.502V416"/>
	</g>
</g>
<line fill="none" stroke="#010101" stroke-width="2" stroke-miterlimit="10" x1="791" y1="378" x2="937" y2="378"/>
<path fill="none" stroke="#010101" stroke-width="2" stroke-miterlimit="10" d="M811.5,353.167"/>
<line fill="none" stroke="#010101" stroke-width="2" stroke-miterlimit="10" x1="922" y1="247" x2="937" y2="247"/>
<g>
	<g>
		<rect x="923" y="327" fill="#010101" width="13" height="6"/>
	</g>
	<g>
		<rect x="923" y="310" fill="#010101" width="13" height="6"/>
	</g>
	<g>
		<rect x="923" y="293" fill="#010101" width="13" height="6"/>
	</g>
	<g>
		<rect x="923" y="276" fill="#010101" width="13" height="6"/>
	</g>
	<g>
		<rect x="923" y="259" fill="#010101" width="13" height="6"/>
	</g>
</g>
<g>
	<g>
		<g>
			<g>
				<path fill="none" stroke="#010101" stroke-width="2" stroke-miterlimit="10" d="M928,372c0,0.55-0.45,1-1,1h-17
					c-0.55,0-1-0.45-1-1v-17c0-0.55,0.45-1,1-1h17c0.55,0,1,0.45,1,1V372z"/>
			</g>
			<line fill="none" stroke="#010101" stroke-width="2" stroke-miterlimit="10" x1="918.4" y1="354" x2="918.4" y2="373"/>
			<line fill="none" stroke="#010101" stroke-width="2" stroke-miterlimit="10" x1="928.793" y1="363.5" x2="909.793" y2="363.5"/>
		</g>
	</g>
	<g>
		<g>
			<g>
				<path fill="none" stroke="#010101" stroke-width="2" stroke-miterlimit="10" d="M900,372c0,0.55-0.45,1-1,1h-17
					c-0.55,0-1-0.45-1-1v-17c0-0.55,0.45-1,1-1h17c0.55,0,1,0.45,1,1V372z"/>
			</g>
			<line fill="none" stroke="#010101" stroke-width="2" stroke-miterlimit="10" x1="890.4" y1="354" x2="890.4" y2="373"/>
			<line fill="none" stroke="#010101" stroke-width="2" stroke-miterlimit="10" x1="900.793" y1="363.5" x2="881.793" y2="363.5"/>
		</g>
	</g>
	<g>
		<g>
			<g>
				<path fill="none" stroke="#010101" stroke-width="2" stroke-miterlimit="10" d="M872,372c0,0.55-0.45,1-1,1h-17
					c-0.55,0-1-0.45-1-1v-17c0-0.55,0.45-1,1-1h17c0.55,0,1,0.45,1,1V372z"/>
			</g>
			<line fill="none" stroke="#010101" stroke-width="2" stroke-miterlimit="10" x1="862.4" y1="354" x2="862.4" y2="373"/>
			<line fill="none" stroke="#010101" stroke-width="2" stroke-miterlimit="10" x1="872.793" y1="363.5" x2="853.793" y2="363.5"/>
		</g>
	</g>
	<g>
		<g>
			<g>
				<path fill="none" stroke="#010101" stroke-width="2" stroke-miterlimit="10" d="M844,372c0,0.55-0.45,1-1,1h-17
					c-0.55,0-1-0.45-1-1v-17c0-0.55,0.45-1,1-1h17c0.55,0,1,0.45,1,1V372z"/>
			</g>
			<line fill="none" stroke="#010101" stroke-width="2" stroke-miterlimit="10" x1="834.4" y1="354" x2="834.4" y2="373"/>
			<line fill="none" stroke="#010101" stroke-width="2" stroke-miterlimit="10" x1="844.793" y1="363.5" x2="825.793" y2="363.5"/>
		</g>
	</g>
	<g>
		<g>
			<g>
				<path fill="none" stroke="#010101" stroke-width="2" stroke-miterlimit="10" d="M816,372c0,0.55-0.45,1-1,1h-17
					c-0.55,0-1-0.45-1-1v-17c0-0.55,0.45-1,1-1h17c0.55,0,1,0.45,1,1V372z"/>
			</g>
			<line fill="none" stroke="#010101" stroke-width="2" stroke-miterlimit="10" x1="806.4" y1="354" x2="806.4" y2="373"/>
			<line fill="none" stroke="#010101" stroke-width="2" stroke-miterlimit="10" x1="816.793" y1="363.5" x2="797.793" y2="363.5"/>
		</g>
	</g>
</g>
<path fill="none" stroke="#010101" stroke-width="2" stroke-miterlimit="10" d="M406.667,417"/>
<path fill="none" stroke="#010101" stroke-width="2" stroke-miterlimit="10" d="M168,397"/>
<path fill="none" stroke="#010101" stroke-width="2" stroke-miterlimit="10" d="M256,391"/>
<path fill="#FFFFFF" stroke="#010101" stroke-width="2" stroke-miterlimit="10" d="M366.074,421"/>
<path fill="#FFFFFF" stroke="#010101" stroke-miterlimit="10" d="M414.88,436.234c0,0-25.782-21.553-30.417-25.352
	c-4.736-3.881-12.429-9.371-24.558-15.941c-24-13-38.953-15.971-74.953-7.971c-36,8-67.123,21.515-84.05,24.765
	S159.988,424,131.988,428.496s-44.994,2.5-70.994-7.5s-44.997-16.748-59.997-25.748L0,457.5h414.5V436L414.88,436.234"/>
<path fill="none" stroke="#010101" stroke-width="2" stroke-miterlimit="10" d="M646.75,417.006"/>
<g>
	<path fill="none" stroke="#010101" stroke-width="4" stroke-miterlimit="10" d="M513,401"/>
	<path fill="none" stroke="#010101" stroke-width="4" stroke-miterlimit="10" d="M409,401"/>
	<path fill="none" stroke="#010101" stroke-width="4" stroke-miterlimit="10" d="M402,417c0-17.673,26.079-32,58.25-32
		c32.17,0,58.25,14.327,58.25,32"/>
	<line fill="none" stroke="#010101" stroke-width="2" stroke-miterlimit="10" x1="406" y1="406" x2="406" y2="416"/>
	<line fill="none" stroke="#010101" stroke-width="2" stroke-miterlimit="10" x1="415" y1="397" x2="415" y2="421"/>
	<line fill="none" stroke="#010101" stroke-width="2" stroke-miterlimit="10" x1="420" y1="392" x2="420" y2="416"/>
	<line fill="none" stroke="#010101" stroke-width="2" stroke-miterlimit="10" x1="425" y1="392" x2="425" y2="416"/>
	<line fill="none" stroke="#010101" stroke-width="2" stroke-miterlimit="10" x1="430" y1="389" x2="430" y2="416"/>
	<line fill="none" stroke="#010101" stroke-width="2" stroke-miterlimit="10" x1="435" y1="387" x2="435" y2="416"/>
	<line fill="none" stroke="#010101" stroke-width="2" stroke-miterlimit="10" x1="440" y1="387" x2="440" y2="416"/>
	<line fill="none" stroke="#010101" stroke-width="2" stroke-miterlimit="10" x1="509" y1="401" x2="509" y2="418"/>
	<line fill="none" stroke="#010101" stroke-width="2" stroke-miterlimit="10" x1="504" y1="397" x2="504" y2="418"/>
	<line fill="none" stroke="#010101" stroke-width="2" stroke-miterlimit="10" x1="499" y1="395" x2="499" y2="418"/>
	<line fill="none" stroke="#010101" stroke-width="2" stroke-miterlimit="10" x1="494" y1="391" x2="494" y2="418"/>
	<line fill="none" stroke="#010101" stroke-width="2" stroke-miterlimit="10" x1="489" y1="391" x2="489" y2="418"/>
	<line fill="none" stroke="#010101" stroke-width="2" stroke-miterlimit="10" x1="410.537" y1="399" x2="410.537" y2="423"/>
	<line fill="none" stroke="#010101" stroke-width="2" stroke-miterlimit="10" x1="444.941" y1="386.5" x2="444.941" y2="416"/>
	<line fill="none" stroke="#010101" stroke-width="2" stroke-miterlimit="10" x1="449.941" y1="387" x2="449.941" y2="416"/>
	<line fill="none" stroke="#010101" stroke-width="2" stroke-miterlimit="10" x1="454.941" y1="387" x2="454.941" y2="417"/>
	<line fill="none" stroke="#010101" stroke-width="2" stroke-miterlimit="10" x1="459.941" y1="384" x2="459.941" y2="416"/>
	<line fill="none" stroke="#010101" stroke-width="2" stroke-miterlimit="10" x1="464.941" y1="384" x2="464.941" y2="416"/>
	<line fill="none" stroke="#010101" stroke-width="2" stroke-miterlimit="10" x1="469.941" y1="385" x2="469.941" y2="416"/>
	<line fill="none" stroke="#010101" stroke-width="2" stroke-miterlimit="10" x1="474.986" y1="385.5" x2="474.986" y2="417.5"/>
	<line fill="none" stroke="#010101" stroke-width="2" stroke-miterlimit="10" x1="479.986" y1="387" x2="479.986" y2="417.5"/>
	<line fill="none" stroke="#010101" stroke-width="2" stroke-miterlimit="10" x1="484.986" y1="388.25" x2="484.986" y2="417.5"/>
	<line fill="none" stroke="#010101" stroke-width="2" stroke-miterlimit="10" x1="513.893" y1="406" x2="513.893" y2="416"/>
</g>
<g>
	<path fill="none" stroke="#010101" stroke-width="4" stroke-miterlimit="10" d="M631,401"/>
	<path fill="none" stroke="#010101" stroke-width="4" stroke-miterlimit="10" d="M527,401"/>
	<path fill="none" stroke="#010101" stroke-width="4" stroke-miterlimit="10" d="M520,417c0-17.673,26.079-32,58.25-32
		c32.17,0,58.25,14.327,58.25,32"/>
	<line fill="none" stroke="#010101" stroke-width="2" stroke-miterlimit="10" x1="524" y1="406" x2="524" y2="416"/>
	<line fill="none" stroke="#010101" stroke-width="2" stroke-miterlimit="10" x1="533" y1="397" x2="533" y2="418"/>
	<line fill="none" stroke="#010101" stroke-width="2" stroke-miterlimit="10" x1="538" y1="392" x2="538" y2="416"/>
	<line fill="none" stroke="#010101" stroke-width="2" stroke-miterlimit="10" x1="543" y1="392" x2="543" y2="416"/>
	<line fill="none" stroke="#010101" stroke-width="2" stroke-miterlimit="10" x1="548" y1="389" x2="548" y2="416"/>
	<line fill="none" stroke="#010101" stroke-width="2" stroke-miterlimit="10" x1="553" y1="387" x2="553" y2="416"/>
	<line fill="none" stroke="#010101" stroke-width="2" stroke-miterlimit="10" x1="558" y1="387" x2="558" y2="416"/>
	<line fill="none" stroke="#010101" stroke-width="2" stroke-miterlimit="10" x1="627" y1="401" x2="627" y2="418"/>
	<line fill="none" stroke="#010101" stroke-width="2" stroke-miterlimit="10" x1="622" y1="397" x2="622" y2="418"/>
	<line fill="none" stroke="#010101" stroke-width="2" stroke-miterlimit="10" x1="617" y1="395" x2="617" y2="418"/>
	<line fill="none" stroke="#010101" stroke-width="2" stroke-miterlimit="10" x1="612" y1="391" x2="612" y2="418"/>
	<line fill="none" stroke="#010101" stroke-width="2" stroke-miterlimit="10" x1="607" y1="391" x2="607" y2="418"/>
	<line fill="none" stroke="#010101" stroke-width="2" stroke-miterlimit="10" x1="528.537" y1="399" x2="528.537" y2="417.5"/>
	<line fill="none" stroke="#010101" stroke-width="2" stroke-miterlimit="10" x1="562.941" y1="386.5" x2="562.941" y2="416"/>
	<line fill="none" stroke="#010101" stroke-width="2" stroke-miterlimit="10" x1="567.941" y1="387" x2="567.941" y2="416"/>
	<line fill="none" stroke="#010101" stroke-width="2" stroke-miterlimit="10" x1="572.941" y1="387" x2="572.941" y2="417"/>
	<line fill="none" stroke="#010101" stroke-width="2" stroke-miterlimit="10" x1="577.941" y1="384" x2="577.941" y2="416"/>
	<line fill="none" stroke="#010101" stroke-width="2" stroke-miterlimit="10" x1="582.941" y1="384" x2="582.941" y2="416"/>
	<line fill="none" stroke="#010101" stroke-width="2" stroke-miterlimit="10" x1="587.941" y1="385" x2="587.941" y2="416"/>
	<line fill="none" stroke="#010101" stroke-width="2" stroke-miterlimit="10" x1="592.986" y1="385.5" x2="592.986" y2="417.5"/>
	<line fill="none" stroke="#010101" stroke-width="2" stroke-miterlimit="10" x1="597.986" y1="387" x2="597.986" y2="417.5"/>
	<line fill="none" stroke="#010101" stroke-width="2" stroke-miterlimit="10" x1="602.986" y1="388.25" x2="602.986" y2="417.5"/>
	<line fill="none" stroke="#010101" stroke-width="2" stroke-miterlimit="10" x1="631.893" y1="406" x2="631.89" y2="417.5"/>
</g>
<path fill="#FFFFFF" stroke="#010101" stroke-width="2" stroke-miterlimit="10" d="M285,417"/>
<path fill="#FFFFFF" stroke="#010101" stroke-width="2" stroke-miterlimit="10" d="M204,386.5"/>
<path fill="none" stroke="#010101" stroke-width="2" stroke-miterlimit="10" d="M420,442.425"/>
<path fill="none" stroke="#010101" stroke-width="2" stroke-miterlimit="10" d="M390.087,416"/>
<path fill="none" stroke="#010101" stroke-miterlimit="10" d="M420,440.763"/>
<polyline fill="#FFFFFF" stroke="#010101" stroke-width="0.75" stroke-miterlimit="10" points="320.357,348.688 318.016,429.5 
	323.579,429.5 323.035,348.818 "/>
<polyline fill="none" points="320.357,348.688 321.13,348.63 321.891,348.659 322.38,348.63 322.969,348.659 323.037,349.031 "/>
<polyline fill="#010101" points="323,393 323,397 319,397 319,393 "/>
<polyline fill="#FFFFFF" stroke="#010101" stroke-width="0.7986" stroke-miterlimit="10" points="350.072,365.455 347.579,451.5 
	353.503,451.5 352.924,365.594 "/>
<polyline fill="none" points="350.072,365.455 350.895,365.393 351.705,365.424 352.226,365.393 352.853,365.424 352.926,365.82 "/>
<polyline fill="#010101" points="353,413 353,417 349,417 349,413 "/>
<polyline fill="#FFFFFF" stroke="#010101" stroke-width="0.75" stroke-miterlimit="10" points="276.357,357.688 274.016,438.5 
	279.579,438.5 279.035,357.818 "/>
<polyline fill="none" points="276.357,357.688 277.13,357.63 277.891,357.659 278.38,357.63 278.969,357.659 279.037,358.031 "/>
<polyline fill="#010101" points="279,402 279,406 275,406 275,402 "/>
<g>
	<g>
		<path fill="#FFFFFF" d="M286,436.5c-2.897,0.003-5.618,0.189-8.399,1.054c-1.602,0.498-1.326,2.946,0.399,2.946
			c0.667,0,1.333,0,2,0c1.935,0,1.935-3,0-3c-2.333,0-4.667,0-7,0c-1.935,0-1.935,3,0,3c2.333,0,4.667,0,7,0c1.935,0,1.935-3,0-3
			c-0.667,0-1.333,0-2,0c0.133,0.982,0.266,1.964,0.399,2.946c2.529-0.786,4.97-0.943,7.601-0.946
			C287.935,439.498,287.935,436.498,286,436.5L286,436.5z"/>
	</g>
</g>
<g>
	<g>
		<path fill="#FFFFFF" d="M355,450.5c-4,0-8,0-12,0c-1.935,0-1.935,3,0,3c4,0,8,0,12,0C356.935,453.5,356.935,450.5,355,450.5
			L355,450.5z"/>
	</g>
</g>
<g>
	<g>
		<path fill="#FFFFFF" d="M324,427.5c-4.512,0.08-8.706,1.252-12.757,3.205c-1.742,0.84-0.22,3.426,1.514,2.59
			c3.573-1.723,7.268-2.724,11.243-2.795C325.933,430.466,325.936,427.466,324,427.5L324,427.5z"/>
	</g>
</g>
<polyline fill="#FFFFFF" stroke="#010101" stroke-width="0.75" stroke-miterlimit="10" points="197.357,353.688 195.016,434.5 
	200.579,434.5 200.035,353.818 "/>
<polyline fill="none" points="197.357,353.688 198.13,353.63 198.891,353.659 199.38,353.63 199.969,353.659 200.037,354.031 "/>
<polyline fill="#010101" points="200,398 200,402 196,402 196,398 "/>
<polyline fill="#FFFFFF" stroke="#010101" stroke-width="0.7986" stroke-miterlimit="10" points="227.072,370.455 224.579,456.5 
	230.503,456.5 229.923,370.594 "/>
<polyline fill="none" points="227.072,370.455 227.895,370.393 228.705,370.424 229.226,370.393 229.853,370.424 229.926,370.82 "/>
<polyline fill="#010101" points="230,418 230,422 226,422 226,418 "/>
<polyline fill="#FFFFFF" stroke="#010101" stroke-width="0.75" stroke-miterlimit="10" points="153.357,362.688 151.016,443.5 
	156.579,443.5 156.035,362.818 "/>
<polyline fill="none" points="153.357,362.688 154.13,362.63 154.891,362.659 155.38,362.63 155.969,362.659 156.037,363.031 "/>
<polyline fill="#010101" points="156,407 156,411 152,411 152,407 "/>
<g>
	<g>
		<path fill="#FFFFFF" d="M163,441.5c-2.897,0.003-5.618,0.189-8.399,1.054c-1.602,0.498-1.326,2.946,0.399,2.946
			c0.667,0,1.333,0,2,0c1.935,0,1.935-3,0-3c-2.333,0-4.667,0-7,0c-1.935,0-1.935,3,0,3c2.333,0,4.667,0,7,0c1.935,0,1.935-3,0-3
			c-0.667,0-1.333,0-2,0c0.133,0.982,0.266,1.964,0.399,2.946c2.529-0.786,4.97-0.943,7.601-0.946
			C164.935,444.498,164.935,441.498,163,441.5L163,441.5z"/>
	</g>
</g>
<g>
	<g>
		<path fill="#FFFFFF" d="M201,432.5c-4.512,0.08-8.706,1.252-12.757,3.205c-1.743,0.84-0.22,3.426,1.514,2.59
			c3.573-1.723,7.268-2.724,11.243-2.795C202.932,435.466,202.936,432.466,201,432.5L201,432.5z"/>
	</g>
</g>
<g>
	<g>
		<path fill="#FFFFFF" d="M391.18,421.242c1.935,0,1.935-3,0-3S389.245,421.242,391.18,421.242L391.18,421.242z"/>
	</g>
</g>
<g>
	<g>
		<path fill="#FFFFFF" d="M413.663,438.729c0.279,0.002,0.557,0.014,0.835,0.034c-0.005,0,0.529,0.066,0.242,0.023
			c0.144,0.021,0.285,0.053,0.427,0.086c0.795,0.187,1.622-0.237,1.845-1.048c0.236-0.858-0.291-1.537-1.048-1.845
			c0.114,0.038,0.087,0.021-0.084-0.053c-0.167-0.072-0.336-0.143-0.506-0.21c-0.76-0.306-1.646,0.327-1.845,1.048
			c-0.235,0.856,0.29,1.54,1.048,1.845c-0.114-0.04-0.087-0.022,0.084,0.052c0.167,0.072,0.336,0.143,0.506,0.211
			c0.266-0.964,0.531-1.929,0.797-2.893c-0.75-0.176-1.531-0.245-2.301-0.251c-0.817-0.007-1.5,0.688-1.5,1.5
			C412.163,438.052,412.846,438.722,413.663,438.729L413.663,438.729z"/>
	</g>
</g>
<g>
	<g>
		<path fill="#FFFFFF" d="M414.48,438.623c-0.74,0.445-1.539,0.745-2.396,0.898c0.486,0.836,0.973,1.671,1.459,2.507
			c0.151-0.09,0.303-0.181,0.453-0.271c-0.615-0.349-1.229-0.698-1.845-1.048c0.271,2.001,0.6,3.943,0.263,5.96
			c-0.121,0.722,0.089,1.267,0.689,1.693c0.311,0.222-0.014,2.775-0.027,3.226c-0.059,2.032,0.333,4.061,0.268,6.106
			c0.367-0.482,0.734-0.964,1.102-1.446c-1.527,0.227-3.038-0.197-4.517-0.524c-1.885-0.418-2.686,2.475-0.797,2.893
			c2.067,0.458,3.999,0.838,6.11,0.524c0.664-0.099,1.082-0.84,1.102-1.446c0.086-2.682-0.252-5.345-0.223-8.028
			c0.017-1.539-0.201-2.968-1.504-3.894c0.23,0.564,0.46,1.129,0.689,1.693c0.43-2.572,0.085-4.993-0.263-7.554
			c-0.113-0.836-1.133-1.211-1.845-1.048c-0.883,0.202-1.185,0.359-1.777,1.042c-1.003,1.154-0.04,2.809,1.459,2.507
			c1.14-0.229,2.074-0.67,3.113-1.201C417.718,440.332,416.199,437.744,414.48,438.623L414.48,438.623z"/>
	</g>
</g>
<g>
	<g>
		<path fill="#FFFFFF" d="M409,455.5c-35.836-0.018-71.664-0.981-107.5-1c-1.935-0.001-1.935,2.999,0,3
			c35.836,0.019,71.664,0.982,107.5,1C410.935,458.501,410.935,455.501,409,455.5L409,455.5z"/>
	</g>
</g>
<g>
	<g>
		<path fill="#FFFFFF" d="M350.5,452.5c-17.95-0.038-35.863-1.184-53.805-1.535c-17.024-0.334-34.241,3.479-51.202,0.803
			c-4.035-0.636-8.052,0.97-9.226,5.238c-0.991,3.604,1.194,8.588,5.238,9.227c17.823,2.812,35.492-0.11,53.375-0.275
			c18.531-0.172,37.077,1.503,55.619,1.543C360.174,467.521,360.172,452.521,350.5,452.5L350.5,452.5z"/>
	</g>
</g>
<g>
	<g>
		<path fill="#FFFFFF" d="M206,450.5c-24.193-0.065-48.308-2.434-72.5-2.5c-9.674-0.026-9.672,14.974,0,15
			c24.192,0.066,48.307,2.435,72.5,2.5C215.674,465.526,215.672,450.526,206,450.5L206,450.5z"/>
	</g>
</g>
<g>
	<g>
		<path fill="#FFFFFF" d="M130.5,452.5c-31.539-0.081-62.875-3.895-94.315-5.882c-6.379-0.403-12.677-0.631-19.063-0.44
			c-3.483,0.104-7.526,0.453-10.601-1.315c-3.553-2.044-3.029-9.307-3.01-12.616c0.043-7.523,0.773-14.737-0.279-22.24
			c-0.569-4.056-5.674-6.215-9.226-5.238c-4.319,1.188-5.806,5.181-5.238,9.227c1.871,13.343-4.006,28.529,5.746,39.995
			c7.504,8.823,19.671,7.082,29.986,7.011c17.532-0.12,35.354,2.387,52.813,3.813c17.699,1.445,35.422,2.642,53.188,2.688
			C140.174,467.525,140.172,452.525,130.5,452.5L130.5,452.5z"/>
	</g>
</g>
<g>
	<g>
		<path fill="#FFFFFF" d="M7.2,412.088c-0.493-1.527-1.141-2.962-1.984-4.322c-0.125-0.203-0.249-0.407-0.374-0.61
			c0.675,2.701,0.783,2.715,0.323,0.042c-0.209-1.024-0.447-1.477-0.959-2.608c-0.27-0.598-0.585-1.173-0.888-1.755
			c-0.231-0.444-0.816-1.955-0.006,0.115c-0.54-1.381-0.066,1.809,0.06,0.632c-0.341,1.262-0.683,2.523-1.024,3.785
			c-0.298,0.372-0.597,0.744-0.896,1.116c2.942-2.837,2.85-7.757,0-10.607c-2.929-2.929-7.665-2.835-10.606,0
			c-3.62,3.49-2.599,8.128-0.692,12.109c0.197,0.411,0.416,0.813,0.628,1.216c0.859,1.634-0.209-0.744-0.285-1.431
			c0.214,1.951,0.603,3.157,1.394,4.956c0.12,0.272,1.262,2.64,0.846,1.351c1.255,3.887,5.154,6.358,9.226,5.238
			C5.771,420.266,8.456,415.979,7.2,412.088L7.2,412.088z"/>
	</g>
</g>
<g>
	<g>
		<path fill="#FFFFFF" d="M4.428,406.236c-0.019-0.132-0.037-0.264-0.056-0.396c0.089,0.665,0.179,1.329,0.268,1.994
			c-0.071-0.804-0.076-1.61-0.175-2.412c-0.104-0.84-0.13-1.868-0.472-2.699c-0.146-0.354-0.255-0.67-0.324-1.047
			c0.089,0.665,0.179,1.329,0.268,1.994c0.007-0.123,0.013-0.246,0.02-0.369c-0.089,0.665-0.179,1.329-0.268,1.994
			c0.028-0.074,0.057-0.147,0.084-0.222c-0.252,0.598-0.504,1.194-0.756,1.792c0.046-0.075,0.092-0.149,0.138-0.224
			c-0.391,0.506-0.782,1.012-1.172,1.518c0.059-0.066,0.119-0.132,0.178-0.198c-0.506,0.392-1.012,0.782-1.518,1.173
			c0.068-0.048,0.136-0.096,0.204-0.144c-0.597,0.252-1.194,0.504-1.792,0.756c0.072-0.021,0.144-0.041,0.216-0.063
			c-1.329,0-2.658,0-3.987,0c0.071,0.017,0.142,0.032,0.213,0.048c-1.103-0.643-2.206-1.285-3.31-1.929
			c0.066,0.063,0.132,0.124,0.198,0.187c2.976,2.799,7.651,2.955,10.606,0c2.823-2.823,2.978-7.807,0-10.607
			c-3.266-3.071-8.495-3.295-11.616,0.171c-1.623,1.802-2.308,3.712-2.439,6.117c-0.084,1.533,0.536,2.401,0.795,3.745
			c-0.089-0.664-0.179-1.329-0.268-1.993c0.199,1.602,0.271,3.193,0.5,4.802c0.256,1.809,1.947,3.604,3.447,4.481
			c1.732,1.015,3.843,1.289,5.779,0.757c1.875-0.516,3.5-1.771,4.482-3.447C4.79,410.107,4.726,408.335,4.428,406.236L4.428,406.236
			z"/>
	</g>
</g>
<g>
	<g>
		<path fill="#FFFFFF" d="M-8.371,394.776c-4.068,0.671-8.158,1.467-11.336,4.321c-3.974,3.568-5.117,9.788-4.005,14.822
			c1.187,5.374,7.108,6.916,11.749,7.504c6.974,0.884,9.923-7.191,8.427-12.717c-0.688-2.538-1.965-4.43-3.575-6.458
			c-1.37-1.725-1.708-3.884-3.265-5.544c-4.674-4.983-12.093-3.469-15.458,2.148c-3.249,5.422-9.121,13.616-3.217,19.362
			c6.933,6.746,17.548-3.852,10.606-10.607c-0.059-0.057-0.117-0.114-0.176-0.171c0.643,1.104,1.286,2.206,1.929,3.31
			c0.187,0.874,0.182,1.745-0.015,2.613c0.071-0.349,0.74-1.884,0.048-0.333c0.46-1.03,1.022-2.019,1.578-2.999
			c0.484-0.856,1.001-1.695,1.521-2.53c1.006-1.618,1.061-0.669-0.425,0.12c-1.262,0.342-2.524,0.683-3.786,1.024
			c-0.162-0.009-0.324-0.018-0.486-0.025c-1.104-0.643-2.207-1.286-3.31-1.929c-0.61-0.651,0.576,1.574,0.521,1.446
			c0.381,0.89,0.991,1.679,1.56,2.452c1.762,2.397,0.636,0.703,1.656,2.302c-0.12-0.403-0.239-0.806-0.359-1.209
			c0.001,1.213,0.239,0.649,0.716-1.69c1.494-1.149,2.988-2.298,4.482-3.447c0.481-0.164,2.595,0.181,0.901-0.296
			c-2.078-0.585,1.328,0.954-0.342-0.265c0.897,0.896,1.794,1.794,2.69,2.69c0.732,1.484,0.337,2.544,0.721,0.923
			c0.476-1.321,0.27-1.123-0.619,0.595c-0.58,0.401-0.473,0.369,0.318-0.095c-0.746,0.396,1.734-0.313,2.08-0.382
			c0.946-0.189,1.907-0.315,2.858-0.472c4.039-0.666,6.235-5.603,5.238-9.227C-0.313,395.767-4.341,394.113-8.371,394.776
			L-8.371,394.776z"/>
	</g>
</g>
<rect x="212.948" y="455.156" fill="#FFFFFF" stroke="#FFFFFF" stroke-miterlimit="10" width="24.888" height="3.773"/>
</svg>
