<?xml version="1.0" encoding="utf-8"?>
<!-- Generator: Adobe Illustrator 16.0.0, SVG Export Plug-In . SVG Version: 6.00 Build 0)  -->
<!DOCTYPE svg PUBLIC "-//W3C//DTD SVG 1.1//EN" "http://www.w3.org/Graphics/SVG/1.1/DTD/svg11.dtd">
<svg version="1.1" id="Layer_1" xmlns="http://www.w3.org/2000/svg" xmlns:xlink="http://www.w3.org/1999/xlink" x="0px" y="0px"
	 width="960px" height="560px" viewBox="0 0 960 560" enable-background="new 0 0 960 560" xml:space="preserve">
<line fill="none" stroke="#000000" stroke-width="3" stroke-miterlimit="10" x1="391" y1="469.5" x2="960" y2="469.5"/>
<g id="Layer_2">
</g>
<polyline fill="none" stroke="#000000" stroke-width="2" stroke-miterlimit="10" points="722,468 722,312 819,312 819,468 "/>
<g>
	<rect x="674" y="195" fill="#FFFFFF" stroke="#000000" stroke-width="2" stroke-miterlimit="10" width="69" height="273"/>
	<g>
		<rect x="674" y="195" fill="none" stroke="#000000" stroke-width="2" stroke-miterlimit="10" width="69" height="273"/>
		<g>
			<g>
				<g>
					<rect x="729" y="441" width="11" height="7"/>
				</g>
				<g>
					<rect x="716" y="441" width="11" height="7"/>
				</g>
				<g>
					<rect x="703" y="441" width="11" height="7"/>
				</g>
				<g>
					<rect x="690" y="441" width="11" height="7"/>
				</g>
				<g>
					<rect x="677" y="441" width="11" height="7"/>
				</g>
			</g>
			<g>
				<g>
					<rect x="729" y="428" width="11" height="7"/>
				</g>
				<g>
					<rect x="716" y="428" width="11" height="7"/>
				</g>
				<g>
					<rect x="703" y="428" width="11" height="7"/>
				</g>
				<g>
					<rect x="690" y="428" width="11" height="7"/>
				</g>
				<g>
					<rect x="677" y="428" width="11" height="7"/>
				</g>
			</g>
			<g>
				<g>
					<rect x="729" y="415" width="11" height="7"/>
				</g>
				<g>
					<rect x="716" y="415" width="11" height="7"/>
				</g>
				<g>
					<rect x="703" y="415" width="11" height="7"/>
				</g>
				<g>
					<rect x="690" y="415" width="11" height="7"/>
				</g>
				<g>
					<rect x="677" y="415" width="11" height="7"/>
				</g>
			</g>
			<g>
				<g>
					<rect x="729" y="402" width="11" height="7"/>
				</g>
				<g>
					<rect x="716" y="402" width="11" height="7"/>
				</g>
				<g>
					<rect x="703" y="402" width="11" height="7"/>
				</g>
				<g>
					<rect x="690" y="402" width="11" height="7"/>
				</g>
				<g>
					<rect x="677" y="402" width="11" height="7"/>
				</g>
			</g>
			<g>
				<g>
					<rect x="729" y="389" width="11" height="7"/>
				</g>
				<g>
					<rect x="716" y="389" width="11" height="7"/>
				</g>
				<g>
					<rect x="703" y="389" width="11" height="7"/>
				</g>
				<g>
					<rect x="690" y="389" width="11" height="7"/>
				</g>
				<g>
					<rect x="677" y="389" width="11" height="7"/>
				</g>
			</g>
			<g>
				<g>
					<rect x="729" y="376" width="11" height="7"/>
				</g>
				<g>
					<rect x="716" y="376" width="11" height="7"/>
				</g>
				<g>
					<rect x="703" y="376" width="11" height="7"/>
				</g>
				<g>
					<rect x="690" y="376" width="11" height="7"/>
				</g>
				<g>
					<rect x="677" y="376" width="11" height="7"/>
				</g>
			</g>
			<g>
				<g>
					<rect x="729" y="363" width="11" height="7"/>
				</g>
				<g>
					<rect x="716" y="363" width="11" height="7"/>
				</g>
				<g>
					<rect x="703" y="363" width="11" height="7"/>
				</g>
				<g>
					<rect x="690" y="363" width="11" height="7"/>
				</g>
				<g>
					<rect x="677" y="363" width="11" height="7"/>
				</g>
			</g>
			<g>
				<g>
					<rect x="729" y="350" width="11" height="7"/>
				</g>
				<g>
					<rect x="716" y="350" width="11" height="7"/>
				</g>
				<g>
					<rect x="703" y="350" width="11" height="7"/>
				</g>
				<g>
					<rect x="690" y="350" width="11" height="7"/>
				</g>
				<g>
					<rect x="677" y="350" width="11" height="7"/>
				</g>
			</g>
			<g>
				<g>
					<rect x="729" y="337" width="11" height="7"/>
				</g>
				<g>
					<rect x="716" y="337" width="11" height="7"/>
				</g>
				<g>
					<rect x="703" y="337" width="11" height="7"/>
				</g>
				<g>
					<rect x="690" y="337" width="11" height="7"/>
				</g>
				<g>
					<rect x="677" y="337" width="11" height="7"/>
				</g>
			</g>
			<g>
				<g>
					<rect x="729" y="324" width="11" height="7"/>
				</g>
				<g>
					<rect x="716" y="324" width="11" height="7"/>
				</g>
				<g>
					<rect x="703" y="324" width="11" height="7"/>
				</g>
				<g>
					<rect x="690" y="324" width="11" height="7"/>
				</g>
				<g>
					<rect x="677" y="324" width="11" height="7"/>
				</g>
			</g>
			<g>
				<g>
					<rect x="729" y="311" width="11" height="7"/>
				</g>
				<g>
					<rect x="716" y="311" width="11" height="7"/>
				</g>
				<g>
					<rect x="703" y="311" width="11" height="7"/>
				</g>
				<g>
					<rect x="690" y="311" width="11" height="7"/>
				</g>
				<g>
					<rect x="677" y="311" width="11" height="7"/>
				</g>
			</g>
			<g>
				<g>
					<rect x="729" y="298" width="11" height="7"/>
				</g>
				<g>
					<rect x="716" y="298" width="11" height="7"/>
				</g>
				<g>
					<rect x="703" y="298" width="11" height="7"/>
				</g>
				<g>
					<rect x="690" y="298" width="11" height="7"/>
				</g>
				<g>
					<rect x="677" y="298" width="11" height="7"/>
				</g>
			</g>
			<g>
				<g>
					<rect x="729" y="285" width="11" height="7"/>
				</g>
				<g>
					<rect x="716" y="285" width="11" height="7"/>
				</g>
				<g>
					<rect x="703" y="285" width="11" height="7"/>
				</g>
				<g>
					<rect x="690" y="285" width="11" height="7"/>
				</g>
				<g>
					<rect x="677" y="285" width="11" height="7"/>
				</g>
			</g>
			<g>
				<g>
					<rect x="729" y="272" width="11" height="7"/>
				</g>
				<g>
					<rect x="716" y="272" width="11" height="7"/>
				</g>
				<g>
					<rect x="703" y="272" width="11" height="7"/>
				</g>
				<g>
					<rect x="690" y="272" width="11" height="7"/>
				</g>
				<g>
					<rect x="677" y="272" width="11" height="7"/>
				</g>
			</g>
			<g>
				<g>
					<rect x="729" y="259" width="11" height="7"/>
				</g>
				<g>
					<rect x="716" y="259" width="11" height="7"/>
				</g>
				<g>
					<rect x="703" y="259" width="11" height="7"/>
				</g>
				<g>
					<rect x="690" y="259" width="11" height="7"/>
				</g>
				<g>
					<rect x="677" y="259" width="11" height="7"/>
				</g>
			</g>
			<g>
				<g>
					<rect x="729" y="246" width="11" height="7"/>
				</g>
				<g>
					<rect x="716" y="246" width="11" height="7"/>
				</g>
				<g>
					<rect x="703" y="246" width="11" height="7"/>
				</g>
				<g>
					<rect x="690" y="246" width="11" height="7"/>
				</g>
				<g>
					<rect x="677" y="246" width="11" height="7"/>
				</g>
			</g>
			<g>
				<g>
					<rect x="729" y="233" width="11" height="7"/>
				</g>
				<g>
					<rect x="716" y="233" width="11" height="7"/>
				</g>
				<g>
					<rect x="703" y="233" width="11" height="7"/>
				</g>
				<g>
					<rect x="690" y="233" width="11" height="7"/>
				</g>
				<g>
					<rect x="677" y="233" width="11" height="7"/>
				</g>
			</g>
			<g>
				<g>
					<rect x="729" y="220" width="11" height="7"/>
				</g>
				<g>
					<rect x="716" y="220" width="11" height="7"/>
				</g>
				<g>
					<rect x="703" y="220" width="11" height="7"/>
				</g>
				<g>
					<rect x="690" y="220" width="11" height="7"/>
				</g>
				<g>
					<rect x="677" y="220" width="11" height="7"/>
				</g>
			</g>
			<g>
				<g>
					<rect x="729" y="207" width="11" height="7"/>
				</g>
				<g>
					<rect x="716" y="207" width="11" height="7"/>
				</g>
				<g>
					<rect x="703" y="207" width="11" height="7"/>
				</g>
				<g>
					<rect x="690" y="207" width="11" height="7"/>
				</g>
				<g>
					<rect x="677" y="207" width="11" height="7"/>
				</g>
			</g>
		</g>
	</g>
</g>
<g id="Layer_3">
	<rect x="722" y="312" fill="#FFFFFF" stroke="#000000" stroke-width="2" stroke-miterlimit="10" width="97" height="156"/>
	<g>
		<rect x="839" y="294" fill="#FFFFFF" stroke="#000000" stroke-width="2" stroke-miterlimit="10" width="58" height="174"/>
		<rect x="843" y="279" fill="none" stroke="#000000" stroke-width="2" stroke-miterlimit="10" width="51" height="15"/>
		<rect x="847" y="268" fill="none" stroke="#000000" stroke-width="2" stroke-miterlimit="10" width="43" height="11"/>
		<rect x="851" y="261" fill="none" stroke="#000000" stroke-width="2" stroke-miterlimit="10" width="35" height="7"/>
		<rect x="854" y="257" fill="none" stroke="#000000" stroke-width="2" stroke-miterlimit="10" width="29" height="4"/>
		<rect x="857" y="253" fill="none" stroke="#000000" stroke-width="2" stroke-miterlimit="10" width="23" height="4"/>
		<polygon fill="none" stroke="#000000" stroke-width="2" stroke-miterlimit="10" points="859.072,253 869,222.885 878.928,253 		
			"/>
		<g>
			<g>
				<g>
					<rect x="886.303" y="445" width="7" height="5"/>
				</g>
				<g>
					<rect x="875.303" y="445" width="7" height="5"/>
				</g>
				<g>
					<rect x="864.303" y="445" width="7" height="5"/>
				</g>
				<g>
					<rect x="853.303" y="445" width="7" height="5"/>
				</g>
				<g>
					<rect x="842.303" y="445" width="7" height="5"/>
				</g>
			</g>
			<g>
				<g>
					<rect x="886.303" y="433" width="7" height="5"/>
				</g>
				<g>
					<rect x="875.303" y="433" width="7" height="5"/>
				</g>
				<g>
					<rect x="864.303" y="433" width="7" height="5"/>
				</g>
				<g>
					<rect x="853.303" y="433" width="7" height="5"/>
				</g>
				<g>
					<rect x="842.303" y="433" width="7" height="5"/>
				</g>
			</g>
			<g>
				<g>
					<rect x="886.303" y="421" width="7" height="5"/>
				</g>
				<g>
					<rect x="875.303" y="421" width="7" height="5"/>
				</g>
				<g>
					<rect x="864.303" y="421" width="7" height="5"/>
				</g>
				<g>
					<rect x="853.303" y="421" width="7" height="5"/>
				</g>
				<g>
					<rect x="842.303" y="421" width="7" height="5"/>
				</g>
			</g>
			<g>
				<g>
					<rect x="886.303" y="409" width="7" height="5"/>
				</g>
				<g>
					<rect x="875.303" y="409" width="7" height="5"/>
				</g>
				<g>
					<rect x="864.303" y="409" width="7" height="5"/>
				</g>
				<g>
					<rect x="853.303" y="409" width="7" height="5"/>
				</g>
				<g>
					<rect x="842.303" y="409" width="7" height="5"/>
				</g>
			</g>
			<g>
				<g>
					<rect x="886.303" y="397" width="7" height="5"/>
				</g>
				<g>
					<rect x="875.303" y="397" width="7" height="5"/>
				</g>
				<g>
					<rect x="864.303" y="397" width="7" height="5"/>
				</g>
				<g>
					<rect x="853.303" y="397" width="7" height="5"/>
				</g>
				<g>
					<rect x="842.303" y="397" width="7" height="5"/>
				</g>
			</g>
			<g>
				<g>
					<rect x="886.303" y="385" width="7" height="5"/>
				</g>
				<g>
					<rect x="875.303" y="385" width="7" height="5"/>
				</g>
				<g>
					<rect x="864.303" y="385" width="7" height="5"/>
				</g>
				<g>
					<rect x="853.303" y="385" width="7" height="5"/>
				</g>
				<g>
					<rect x="842.303" y="385" width="7" height="5"/>
				</g>
			</g>
			<g>
				<g>
					<rect x="886.303" y="373" width="7" height="5"/>
				</g>
				<g>
					<rect x="875.303" y="373" width="7" height="5"/>
				</g>
				<g>
					<rect x="864.303" y="373" width="7" height="5"/>
				</g>
				<g>
					<rect x="853.303" y="373" width="7" height="5"/>
				</g>
				<g>
					<rect x="842.303" y="373" width="7" height="5"/>
				</g>
			</g>
			<g>
				<g>
					<rect x="886.303" y="361" width="7" height="5"/>
				</g>
				<g>
					<rect x="875.303" y="361" width="7" height="5"/>
				</g>
				<g>
					<rect x="864.303" y="361" width="7" height="5"/>
				</g>
				<g>
					<rect x="853.303" y="361" width="7" height="5"/>
				</g>
				<g>
					<rect x="842.303" y="361" width="7" height="5"/>
				</g>
			</g>
			<g>
				<g>
					<rect x="886.303" y="349" width="7" height="5"/>
				</g>
				<g>
					<rect x="875.303" y="349" width="7" height="5"/>
				</g>
				<g>
					<rect x="864.303" y="349" width="7" height="5"/>
				</g>
				<g>
					<rect x="853.303" y="349" width="7" height="5"/>
				</g>
				<g>
					<rect x="842.303" y="349" width="7" height="5"/>
				</g>
			</g>
			<g>
				<g>
					<rect x="886.303" y="337" width="7" height="5"/>
				</g>
				<g>
					<rect x="875.303" y="337" width="7" height="5"/>
				</g>
				<g>
					<rect x="864.303" y="337" width="7" height="5"/>
				</g>
				<g>
					<rect x="853.303" y="337" width="7" height="5"/>
				</g>
				<g>
					<rect x="842.303" y="337" width="7" height="5"/>
				</g>
			</g>
			<g>
				<g>
					<rect x="886.303" y="325" width="7" height="5"/>
				</g>
				<g>
					<rect x="875.303" y="325" width="7" height="5"/>
				</g>
				<g>
					<rect x="864.303" y="325" width="7" height="5"/>
				</g>
				<g>
					<rect x="853.303" y="325" width="7" height="5"/>
				</g>
				<g>
					<rect x="842.303" y="325" width="7" height="5"/>
				</g>
			</g>
			<g>
				<g>
					<rect x="886.303" y="313" width="7" height="5"/>
				</g>
				<g>
					<rect x="875.303" y="313" width="7" height="5"/>
				</g>
				<g>
					<rect x="864.303" y="313" width="7" height="5"/>
				</g>
				<g>
					<rect x="853.303" y="313" width="7" height="5"/>
				</g>
				<g>
					<rect x="842.303" y="313" width="7" height="5"/>
				</g>
			</g>
			<g>
				<g>
					<rect x="886.303" y="301" width="7" height="5"/>
				</g>
				<g>
					<rect x="875.303" y="301" width="7" height="5"/>
				</g>
				<g>
					<rect x="864.303" y="301" width="7" height="5"/>
				</g>
				<g>
					<rect x="853.303" y="301" width="7" height="5"/>
				</g>
				<g>
					<rect x="842.303" y="301" width="7" height="5"/>
				</g>
			</g>
		</g>
		<g>
			<g>
				<rect x="886" y="282" width="5" height="9"/>
			</g>
			<g>
				<rect x="878" y="282" width="5" height="9"/>
			</g>
			<g>
				<rect x="870" y="282" width="5" height="9"/>
			</g>
			<g>
				<rect x="862" y="282" width="5" height="9"/>
			</g>
			<g>
				<rect x="854" y="282" width="5" height="9"/>
			</g>
			<g>
				<rect x="846" y="282" width="5" height="9"/>
			</g>
		</g>
	</g>
	<path d="M582,469"/>
</g>
<g>
	<g>
		<line fill="none" stroke="#000000" stroke-width="3" stroke-miterlimit="10" x1="726.527" y1="459.5" x2="814.527" y2="459.5"/>
	</g>
	<g>
		<line fill="none" stroke="#000000" stroke-width="3" stroke-miterlimit="10" x1="726.527" y1="453.5" x2="814.527" y2="453.5"/>
	</g>
	<g>
		<line fill="none" stroke="#000000" stroke-width="3" stroke-miterlimit="10" x1="726.527" y1="447.5" x2="814.527" y2="447.5"/>
	</g>
	<g>
		<line fill="none" stroke="#000000" stroke-width="3" stroke-miterlimit="10" x1="726.527" y1="441.5" x2="814.527" y2="441.5"/>
	</g>
	<g>
		<line fill="none" stroke="#000000" stroke-width="3" stroke-miterlimit="10" x1="726.527" y1="435.5" x2="814.527" y2="435.5"/>
	</g>
	<g>
		<line fill="none" stroke="#000000" stroke-width="3" stroke-miterlimit="10" x1="726.527" y1="429.5" x2="814.527" y2="429.5"/>
	</g>
	<g>
		<line fill="none" stroke="#000000" stroke-width="3" stroke-miterlimit="10" x1="726.527" y1="423.5" x2="814.527" y2="423.5"/>
	</g>
	<g>
		<line fill="none" stroke="#000000" stroke-width="3" stroke-miterlimit="10" x1="726.527" y1="417.5" x2="814.527" y2="417.5"/>
	</g>
	<g>
		<line fill="none" stroke="#000000" stroke-width="3" stroke-miterlimit="10" x1="726.527" y1="411.5" x2="814.527" y2="411.5"/>
	</g>
	<g>
		<line fill="none" stroke="#000000" stroke-width="3" stroke-miterlimit="10" x1="726.527" y1="405.5" x2="814.527" y2="405.5"/>
	</g>
	<g>
		<line fill="none" stroke="#000000" stroke-width="3" stroke-miterlimit="10" x1="726.527" y1="399.5" x2="814.527" y2="399.5"/>
	</g>
	<g>
		<line fill="none" stroke="#000000" stroke-width="3" stroke-miterlimit="10" x1="726.527" y1="393.5" x2="814.527" y2="393.5"/>
	</g>
	<g>
		<line fill="none" stroke="#000000" stroke-width="3" stroke-miterlimit="10" x1="726.527" y1="387.5" x2="814.527" y2="387.5"/>
	</g>
	<g>
		<line fill="none" stroke="#000000" stroke-width="3" stroke-miterlimit="10" x1="726.527" y1="381.5" x2="814.527" y2="381.5"/>
	</g>
	<g>
		<line fill="none" stroke="#000000" stroke-width="3" stroke-miterlimit="10" x1="726.527" y1="375.5" x2="814.527" y2="375.5"/>
	</g>
	<g>
		<line fill="none" stroke="#000000" stroke-width="3" stroke-miterlimit="10" x1="726.527" y1="369.5" x2="814.527" y2="369.5"/>
	</g>
	<g>
		<line fill="none" stroke="#000000" stroke-width="3" stroke-miterlimit="10" x1="726.527" y1="363.5" x2="814.527" y2="363.5"/>
	</g>
	<g>
		<line fill="none" stroke="#000000" stroke-width="3" stroke-miterlimit="10" x1="726.527" y1="357.5" x2="814.527" y2="357.5"/>
	</g>
	<g>
		<line fill="none" stroke="#000000" stroke-width="3" stroke-miterlimit="10" x1="726.527" y1="351.5" x2="814.527" y2="351.5"/>
	</g>
	<g>
		<line fill="none" stroke="#000000" stroke-width="3" stroke-miterlimit="10" x1="726.527" y1="345.5" x2="814.527" y2="345.5"/>
	</g>
	<g>
		<line fill="none" stroke="#000000" stroke-width="3" stroke-miterlimit="10" x1="726.527" y1="339.5" x2="814.527" y2="339.5"/>
	</g>
	<g>
		<line fill="none" stroke="#000000" stroke-width="3" stroke-miterlimit="10" x1="726.527" y1="333.5" x2="814.527" y2="333.5"/>
	</g>
	<g>
		<line fill="none" stroke="#000000" stroke-width="3" stroke-miterlimit="10" x1="726.527" y1="327.5" x2="814.527" y2="327.5"/>
	</g>
	<g>
		<line fill="none" stroke="#000000" stroke-width="3" stroke-miterlimit="10" x1="726.527" y1="321.5" x2="814.527" y2="321.5"/>
	</g>
</g>
<path fill="none" stroke="#000000" stroke-miterlimit="10" d="M326.75,477.625"/>
<path fill="none" stroke="#000000" stroke-width="2" stroke-miterlimit="10" d="M810.5,405.167"/>
<path fill="none" stroke="#000000" stroke-width="2" stroke-miterlimit="10" d="M405.667,469"/>
<g>
	<rect x="400.5" y="469.006" stroke="#000000" stroke-width="2" stroke-miterlimit="10" width="14.009" height="22.771"/>
	<path stroke="#000000" stroke-width="2" stroke-miterlimit="10" d="M417,492.146c0,1.023-0.83,1.854-1.854,1.854h-15.293
		c-1.023,0-1.854-0.83-1.854-1.854v-0.293c0-1.023,0.83-1.854,1.854-1.854h15.293c1.023,0,1.854,0.83,1.854,1.854V492.146z"/>
</g>
<g>
	<rect x="622.5" y="469.006" stroke="#000000" stroke-width="2" stroke-miterlimit="10" width="14.009" height="22.771"/>
	<path stroke="#000000" stroke-width="2" stroke-miterlimit="10" d="M639,492.146c0,1.023-0.83,1.854-1.854,1.854h-15.293
		c-1.023,0-1.854-0.83-1.854-1.854v-0.293c0-1.023,0.83-1.854,1.854-1.854h15.293c1.023,0,1.854,0.83,1.854,1.854V492.146z"/>
</g>
<g>
	<rect x="510.854" y="469.006" stroke="#000000" stroke-width="1.9998" stroke-miterlimit="10" width="15" height="22.995"/>
	<path stroke="#000000" stroke-width="1.9998" stroke-miterlimit="10" d="M527.854,492.146c0,1.023-0.83,1.854-1.854,1.854h-15.293
		c-1.023,0-1.854-0.83-1.854-1.854v-0.292c0-1.023,0.83-1.854,1.854-1.854H526c1.023,0,1.854,0.83,1.854,1.854V492.146z"/>
</g>
<path fill="none" stroke="#000000" stroke-width="2" stroke-miterlimit="10" d="M167,449"/>
<path fill="none" stroke="#000000" stroke-width="2" stroke-miterlimit="10" d="M255,443"/>
<path fill="#FFFFFF" stroke="#000000" stroke-width="2" stroke-miterlimit="10" d="M0,424c0,0,79.987-2,135.288,28
	c14.885,8.075,42.849,8.687,56.55,13.568"/>
<path fill="#FFFFFF" stroke="#000000" stroke-width="2" stroke-miterlimit="10" d="M365.074,473"/>
<path fill="none" stroke="#000000" stroke-width="2" stroke-miterlimit="10" d="M645.75,469.006"/>
<path fill="#FFFFFF" stroke="#000000" stroke-width="2" stroke-miterlimit="10" d="M284,469"/>
<path fill="#FFFFFF" stroke="#000000" stroke-width="2" stroke-miterlimit="10" d="M203,438.5"/>
<line fill="none" stroke="#000000" stroke-width="3" stroke-miterlimit="10" x1="175" y1="470.5" x2="52" y2="470.5"/>
<path fill="none" stroke="#000000" stroke-width="2" stroke-miterlimit="10" d="M419,494.425"/>
<path fill="none" stroke="#000000" stroke-width="2" stroke-miterlimit="10" d="M389.087,468"/>
<path fill="#FFFFFF" d="M395.592,474.949c0,0,16.626,11.74,24.661,21.264s-21.739,9.536-21.739,9.536L386,497.875V482
	L395.592,474.949z"/>
<path fill="none" stroke="#000000" stroke-miterlimit="10" d="M419,492.763"/>
</svg>
