<?xml version="1.0" encoding="utf-8"?>
<!-- Generator: Adobe Illustrator 16.0.0, SVG Export Plug-In . SVG Version: 6.00 Build 0)  -->
<!DOCTYPE svg PUBLIC "-//W3C//DTD SVG 1.1//EN" "http://www.w3.org/Graphics/SVG/1.1/DTD/svg11.dtd">
<svg version="1.1" id="Layer_1" xmlns="http://www.w3.org/2000/svg" xmlns:xlink="http://www.w3.org/1999/xlink" x="0px" y="0px"
	 width="1476px" height="82px" viewBox="0 0 1476 82" enable-background="new 0 0 1476 82" xml:space="preserve">
<g>
	<path d="M1182,12h219.134c4.591,0,11.562,1.82,15.489,4.197c0,0,74.245,44.803,41.69,44.803S1182,61,1182,61"/>
	<path fill="none" stroke="#FFFFFF" stroke-miterlimit="10" d="M1182,11.5h219.134c4.591,0,11.562,2.32,15.489,4.697
		c0,0,74.245,45.303,41.69,45.303S1182,61.5,1182,61.5"/>
</g>
<path d="M1312,20.348c0-4.61-3.737-8.348-8.348-8.348h-122.305c-4.61,0-8.348,3.737-8.348,8.348v32.305
	c0,4.61,3.737,8.348,8.348,8.348h122.305c4.61,0,8.348-3.737,8.348-8.348V20.348z"/>
<g>
	<g>
		<path fill="#FFFFFF" d="M1402,19h7.269c1.13,0,2.876,0.346,3.882,0.861c0,0,19.93,10.139,11.227,10.139S1402,30,1402,30"/>
	</g>
	<path fill="#FFFFFF" d="M1411,24.5c0-3.038-2.463-5.5-5.5-5.5h-7c-3.037,0-5.5,2.462-5.5,5.5l0,0c0,3.038,2.463,5.5,5.5,5.5h7
		C1408.537,30,1411,27.538,1411,24.5L1411,24.5z"/>
</g>
<ellipse cx="1396.914" cy="60" rx="8.668" ry="7.333"/>
<ellipse cx="1349.914" cy="60" rx="8.668" ry="7.333"/>
<rect x="1361" y="60" width="24" height="3"/>
<rect x="1363" y="62" width="8" height="2"/>
<rect x="1375" y="62" width="8" height="2"/>
<path d="M1367.248,13.212c0-0.444-0.302-0.875-0.865-1.282c-2.757-1.995-11.795-3.459-22.519-3.459
	c-12.915,0-23.384,2.123-23.384,4.741"/>
<rect x="1288" y="11" width="19" height="4"/>
<rect x="1258" y="11" width="19" height="4"/>
<rect x="1184" y="10" width="3" height="5"/>
<rect x="1189" y="10" width="3" height="5"/>
<ellipse cx="1266.914" cy="60" rx="8.668" ry="7.333"/>
<ellipse cx="1219.914" cy="60" rx="8.668" ry="7.333"/>
<rect x="1231" y="60" width="24" height="3"/>
<rect x="1233" y="62" width="8" height="2"/>
<rect x="1245" y="62" width="8" height="2"/>
<g>
	<g>
		<line x1="296" y1="61" x2="20" y2="61"/>
		<line fill="none" stroke="#FFFFFF" stroke-miterlimit="10" x1="296" y1="61.5" x2="20" y2="61.5"/>
	</g>
	<g>
		<line x1="587" y1="61" x2="311" y2="61"/>
		<line fill="none" stroke="#FFFFFF" stroke-miterlimit="10" x1="587" y1="61.5" x2="311" y2="61.5"/>
	</g>
	<g>
		<line x1="878" y1="61" x2="602" y2="61"/>
		<line fill="none" stroke="#FFFFFF" stroke-miterlimit="10" x1="878" y1="61.5" x2="602" y2="61.5"/>
	</g>
	<g>
		<line x1="1169" y1="61" x2="893" y2="61"/>
		<line fill="none" stroke="#FFFFFF" stroke-miterlimit="10" x1="1169" y1="61.5" x2="893" y2="61.5"/>
	</g>
</g>
<g>
	<g>
		<line x1="20" y1="12" x2="247" y2="12"/>
		<line fill="none" stroke="#FFFFFF" stroke-miterlimit="10" x1="20" y1="11.5" x2="247" y2="11.5"/>
	</g>
	<g>
		<line x1="311" y1="12" x2="538" y2="12"/>
		<line fill="none" stroke="#FFFFFF" stroke-miterlimit="10" x1="311" y1="11.5" x2="538" y2="11.5"/>
	</g>
	<g>
		<line x1="602" y1="12" x2="829" y2="12"/>
		<line fill="none" stroke="#FFFFFF" stroke-miterlimit="10" x1="602" y1="11.5" x2="829" y2="11.5"/>
	</g>
	<g>
		<line x1="893" y1="12" x2="1120" y2="12"/>
		<line fill="none" stroke="#FFFFFF" stroke-miterlimit="10" x1="893" y1="11.5" x2="1120" y2="11.5"/>
	</g>
</g>
<g>
	<g>
		<path d="M11,52.652C11,57.263,18.499,61,27.442,61h237.271C273.656,61,282,57.263,282,52.652V20.348
			c0-4.61-8.344-8.348-17.287-8.348H27.442C18.499,12,11,15.737,11,20.348V52.652z"/>
	</g>
	<g>
		<path d="M302,52.652c0,4.61,7.499,8.348,16.442,8.348h237.271C564.656,61,573,57.263,573,52.652V20.348
			c0-4.61-8.344-8.348-17.287-8.348H318.442C309.499,12,302,15.737,302,20.348V52.652z"/>
	</g>
	<g>
		<path d="M593,52.652c0,4.61,7.499,8.348,16.442,8.348h237.271C855.656,61,864,57.263,864,52.652V20.348
			c0-4.61-8.344-8.348-17.287-8.348H609.442C600.499,12,593,15.737,593,20.348V52.652z"/>
	</g>
	<g>
		<path d="M884,52.652c0,4.61,7.499,8.348,16.442,8.348h237.271c8.943,0,17.287-3.737,17.287-8.348V20.348
			c0-4.61-8.344-8.348-17.287-8.348H900.442C891.499,12,884,15.737,884,20.348V52.652z"/>
	</g>
</g>
<g>
	<g>
		<path fill="#FFFFFF" d="M1386,20c0-0.552-0.447-1-1-1h-14c-0.553,0-1,0.448-1,1v9c0,0.552,0.447,1,1,1h14c0.553,0,1-0.448,1-1V20z
			"/>
	</g>
	<g>
		<path fill="#FFFFFF" d="M1367,20c0-0.552-0.447-1-1-1h-14c-0.553,0-1,0.448-1,1v9c0,0.552,0.447,1,1,1h14c0.553,0,1-0.448,1-1V20z
			"/>
	</g>
	<g>
		<path fill="#FFFFFF" d="M1348,20c0-0.552-0.447-1-1-1h-14c-0.553,0-1,0.448-1,1v9c0,0.552,0.447,1,1,1h14c0.553,0,1-0.448,1-1V20z
			"/>
	</g>
	<g>
		<path fill="#FFFFFF" d="M1329,20c0-0.552-0.447-1-1-1h-14c-0.553,0-1,0.448-1,1v9c0,0.552,0.447,1,1,1h14c0.553,0,1-0.448,1-1V20z
			"/>
	</g>
	<g>
		<path fill="#FFFFFF" d="M1310,20c0-0.552-0.447-1-1-1h-14c-0.553,0-1,0.448-1,1v9c0,0.552,0.447,1,1,1h14c0.553,0,1-0.448,1-1V20z
			"/>
	</g>
	<g>
		<path fill="#FFFFFF" d="M1291,20c0-0.552-0.447-1-1-1h-14c-0.553,0-1,0.448-1,1v9c0,0.552,0.447,1,1,1h14c0.553,0,1-0.448,1-1V20z
			"/>
	</g>
	<g>
		<path fill="#FFFFFF" d="M1272,20c0-0.552-0.447-1-1-1h-14c-0.553,0-1,0.448-1,1v9c0,0.552,0.447,1,1,1h14c0.553,0,1-0.448,1-1V20z
			"/>
	</g>
	<g>
		<path fill="#FFFFFF" d="M1253,20c0-0.552-0.447-1-1-1h-14c-0.553,0-1,0.448-1,1v9c0,0.552,0.447,1,1,1h14c0.553,0,1-0.448,1-1V20z
			"/>
	</g>
	<g>
		<path fill="#FFFFFF" d="M1234,20c0-0.552-0.447-1-1-1h-14c-0.553,0-1,0.448-1,1v9c0,0.552,0.447,1,1,1h14c0.553,0,1-0.448,1-1V20z
			"/>
	</g>
	<g>
		<path fill="#FFFFFF" d="M1215,20c0-0.552-0.447-1-1-1h-14c-0.553,0-1,0.448-1,1v9c0,0.552,0.447,1,1,1h14c0.553,0,1-0.448,1-1V20z
			"/>
	</g>
	<g>
		<path fill="#FFFFFF" d="M1196,20c0-0.552-0.447-1-1-1h-14c-0.553,0-1,0.448-1,1v9c0,0.552,0.447,1,1,1h14c0.553,0,1-0.448,1-1V20z
			"/>
	</g>
</g>
<g>
	<g>
		<ellipse cx="234.914" cy="60" rx="8.668" ry="7.333"/>
	</g>
	<g>
		<ellipse cx="525.914" cy="60" rx="8.668" ry="7.333"/>
	</g>
	<g>
		<ellipse cx="816.914" cy="60" rx="8.668" ry="7.333"/>
	</g>
	<g>
		<ellipse cx="1107.914" cy="60" rx="8.668" ry="7.333"/>
	</g>
</g>
<g>
	<g>
		<ellipse cx="187.914" cy="60" rx="8.668" ry="7.333"/>
	</g>
	<g>
		<ellipse cx="478.914" cy="60" rx="8.668" ry="7.333"/>
	</g>
	<g>
		<ellipse cx="769.914" cy="60" rx="8.668" ry="7.333"/>
	</g>
	<g>
		<ellipse cx="1060.914" cy="60" rx="8.668" ry="7.333"/>
	</g>
</g>
<g>
	<g>
		<rect x="199" y="60" width="24" height="3"/>
	</g>
	<g>
		<rect x="490" y="60" width="24" height="3"/>
	</g>
	<g>
		<rect x="781" y="60" width="24" height="3"/>
	</g>
	<g>
		<rect x="1072" y="60" width="24" height="3"/>
	</g>
</g>
<g>
	<g>
		<rect x="201" y="62" width="8" height="2"/>
	</g>
	<g>
		<rect x="492" y="62" width="8" height="2"/>
	</g>
	<g>
		<rect x="783" y="62" width="8" height="2"/>
	</g>
	<g>
		<rect x="1074" y="62" width="8" height="2"/>
	</g>
</g>
<g>
	<g>
		<rect x="213" y="62" width="8" height="2"/>
	</g>
	<g>
		<rect x="504" y="62" width="8" height="2"/>
	</g>
	<g>
		<rect x="795" y="62" width="8" height="2"/>
	</g>
	<g>
		<rect x="1086" y="62" width="8" height="2"/>
	</g>
</g>
<g>
	<g>
		<rect x="224" y="11" width="19" height="4"/>
	</g>
	<g>
		<rect x="515" y="11" width="19" height="4"/>
	</g>
	<g>
		<rect x="806" y="11" width="19" height="4"/>
	</g>
	<g>
		<rect x="1097" y="11" width="19" height="4"/>
	</g>
</g>
<g>
	<g>
		<rect x="194" y="11" width="19" height="4"/>
	</g>
	<g>
		<rect x="485" y="11" width="19" height="4"/>
	</g>
	<g>
		<rect x="776" y="11" width="19" height="4"/>
	</g>
	<g>
		<rect x="1067" y="11" width="19" height="4"/>
	</g>
</g>
<g>
	<g>
		<rect x="22" y="10" width="3" height="5"/>
	</g>
	<g>
		<rect x="313" y="10" width="3" height="5"/>
	</g>
	<g>
		<rect x="604" y="10" width="3" height="5"/>
	</g>
	<g>
		<rect x="895" y="10" width="3" height="5"/>
	</g>
</g>
<g>
	<g>
		<rect x="27" y="10" width="3" height="5"/>
	</g>
	<g>
		<rect x="318" y="10" width="3" height="5"/>
	</g>
	<g>
		<rect x="609" y="10" width="3" height="5"/>
	</g>
	<g>
		<rect x="900" y="10" width="3" height="5"/>
	</g>
</g>
<g>
	<g>
		<ellipse cx="104.914" cy="60" rx="8.668" ry="7.333"/>
	</g>
	<g>
		<ellipse cx="395.914" cy="60" rx="8.668" ry="7.333"/>
	</g>
	<g>
		<ellipse cx="686.914" cy="60" rx="8.668" ry="7.333"/>
	</g>
	<g>
		<ellipse cx="977.914" cy="60" rx="8.668" ry="7.333"/>
	</g>
</g>
<g>
	<g>
		<ellipse cx="57.914" cy="60" rx="8.668" ry="7.333"/>
	</g>
	<g>
		<ellipse cx="348.914" cy="60" rx="8.668" ry="7.333"/>
	</g>
	<g>
		<ellipse cx="639.914" cy="60" rx="8.668" ry="7.333"/>
	</g>
	<g>
		<ellipse cx="930.914" cy="60" rx="8.668" ry="7.333"/>
	</g>
</g>
<g>
	<g>
		<rect x="69" y="60" width="24" height="3"/>
	</g>
	<g>
		<rect x="360" y="60" width="24" height="3"/>
	</g>
	<g>
		<rect x="651" y="60" width="24" height="3"/>
	</g>
	<g>
		<rect x="942" y="60" width="24" height="3"/>
	</g>
</g>
<g>
	<g>
		<rect x="71" y="62" width="8" height="2"/>
	</g>
	<g>
		<rect x="362" y="62" width="8" height="2"/>
	</g>
	<g>
		<rect x="653" y="62" width="8" height="2"/>
	</g>
	<g>
		<rect x="944" y="62" width="8" height="2"/>
	</g>
</g>
<g>
	<g>
		<rect x="83" y="62" width="8" height="2"/>
	</g>
	<g>
		<rect x="374" y="62" width="8" height="2"/>
	</g>
	<g>
		<rect x="665" y="62" width="8" height="2"/>
	</g>
	<g>
		<rect x="956" y="62" width="8" height="2"/>
	</g>
</g>
<g>
	<g>
		<rect x="268" y="55" width="43" height="4"/>
	</g>
	<g>
		<rect x="559" y="55" width="43" height="4"/>
	</g>
	<g>
		<rect x="850" y="55" width="43" height="4"/>
	</g>
	<g>
		<rect x="1141" y="55" width="43" height="4"/>
	</g>
</g>
<g>
	<g>
		<path d="M286.82,57c0,1.657,1.344,3,3,3h2c1.657,0,3-1.343,3-3l0,0c0-1.657-1.343-3-3-3h-2C288.164,54,286.82,55.343,286.82,57
			L286.82,57z"/>
	</g>
	<g>
		<path d="M577.82,57c0,1.657,1.344,3,3,3h2c1.657,0,3-1.343,3-3l0,0c0-1.657-1.343-3-3-3h-2C579.164,54,577.82,55.343,577.82,57
			L577.82,57z"/>
	</g>
	<g>
		<path d="M868.82,57c0,1.657,1.344,3,3,3h2c1.657,0,3-1.343,3-3l0,0c0-1.657-1.343-3-3-3h-2C870.164,54,868.82,55.343,868.82,57
			L868.82,57z"/>
	</g>
	<g>
		<path d="M1159.82,57c0,1.657,1.344,3,3,3h2c1.657,0,3-1.343,3-3l0,0c0-1.657-1.343-3-3-3h-2
			C1161.164,54,1159.82,55.343,1159.82,57L1159.82,57z"/>
	</g>
</g>
<g>
	<g>
		<rect x="295" y="58" width="5" height="2"/>
	</g>
	<g>
		<rect x="586" y="58" width="5" height="2"/>
	</g>
	<g>
		<rect x="877" y="58" width="5" height="2"/>
	</g>
	<g>
		<rect x="1168" y="58" width="5" height="2"/>
	</g>
</g>
<g>
	<g>
		<rect x="281" y="58" width="5" height="2"/>
	</g>
	<g>
		<rect x="572" y="58" width="5" height="2"/>
	</g>
	<g>
		<rect x="863" y="58" width="5" height="2"/>
	</g>
	<g>
		<rect x="1154" y="58" width="5" height="2"/>
	</g>
</g>
<g>
	<g>
		<g>
			<path fill="#FFFFFF" d="M269,20c0-0.552-0.447-1-1-1h-14c-0.553,0-1,0.448-1,1v9c0,0.552,0.447,1,1,1h14c0.553,0,1-0.448,1-1V20z
				"/>
		</g>
		<g>
			<path fill="#FFFFFF" d="M250,20c0-0.552-0.447-1-1-1h-14c-0.552,0-1,0.448-1,1v9c0,0.552,0.448,1,1,1h14c0.553,0,1-0.448,1-1V20z
				"/>
		</g>
		<g>
			<path fill="#FFFFFF" d="M231,20c0-0.552-0.448-1-1-1h-14c-0.552,0-1,0.448-1,1v9c0,0.552,0.448,1,1,1h14c0.552,0,1-0.448,1-1V20z
				"/>
		</g>
		<g>
			<path fill="#FFFFFF" d="M212,20c0-0.552-0.448-1-1-1h-14c-0.552,0-1,0.448-1,1v9c0,0.552,0.448,1,1,1h14c0.552,0,1-0.448,1-1V20z
				"/>
		</g>
		<g>
			<path fill="#FFFFFF" d="M193,20c0-0.552-0.448-1-1-1h-14c-0.552,0-1,0.448-1,1v9c0,0.552,0.448,1,1,1h14c0.552,0,1-0.448,1-1V20z
				"/>
		</g>
		<g>
			<path fill="#FFFFFF" d="M174,20c0-0.552-0.448-1-1-1h-14c-0.552,0-1,0.448-1,1v9c0,0.552,0.448,1,1,1h14c0.552,0,1-0.448,1-1V20z
				"/>
		</g>
		<g>
			<path fill="#FFFFFF" d="M155,20c0-0.552-0.448-1-1-1h-14c-0.552,0-1,0.448-1,1v9c0,0.552,0.448,1,1,1h14c0.552,0,1-0.448,1-1V20z
				"/>
		</g>
		<g>
			<path fill="#FFFFFF" d="M136,20c0-0.552-0.448-1-1-1h-14c-0.552,0-1,0.448-1,1v9c0,0.552,0.448,1,1,1h14c0.552,0,1-0.448,1-1V20z
				"/>
		</g>
		<g>
			<path fill="#FFFFFF" d="M117,20c0-0.552-0.448-1-1-1h-14c-0.552,0-1,0.448-1,1v9c0,0.552,0.448,1,1,1h14c0.552,0,1-0.448,1-1V20z
				"/>
		</g>
		<g>
			<path fill="#FFFFFF" d="M98,20c0-0.552-0.448-1-1-1H83c-0.552,0-1,0.448-1,1v9c0,0.552,0.448,1,1,1h14c0.552,0,1-0.448,1-1V20z"
				/>
		</g>
		<g>
			<path fill="#FFFFFF" d="M79,20c0-0.552-0.448-1-1-1H64c-0.552,0-1,0.448-1,1v9c0,0.552,0.448,1,1,1h14c0.552,0,1-0.448,1-1V20z"
				/>
		</g>
		<g>
			<path fill="#FFFFFF" d="M60,20c0-0.552-0.448-1-1-1H45c-0.552,0-1,0.448-1,1v9c0,0.552,0.448,1,1,1h14c0.552,0,1-0.448,1-1V20z"
				/>
		</g>
		<g>
			<path fill="#FFFFFF" d="M41,20c0-0.552-0.448-1-1-1H26c-0.552,0-1,0.448-1,1v9c0,0.552,0.448,1,1,1h14c0.552,0,1-0.448,1-1V20z"
				/>
		</g>
	</g>
	<g>
		<g>
			<path fill="#FFFFFF" d="M560,20c0-0.552-0.447-1-1-1h-14c-0.553,0-1,0.448-1,1v9c0,0.552,0.447,1,1,1h14c0.553,0,1-0.448,1-1V20z
				"/>
		</g>
		<g>
			<path fill="#FFFFFF" d="M541,20c0-0.552-0.447-1-1-1h-14c-0.553,0-1,0.448-1,1v9c0,0.552,0.447,1,1,1h14c0.553,0,1-0.448,1-1V20z
				"/>
		</g>
		<g>
			<path fill="#FFFFFF" d="M522,20c0-0.552-0.447-1-1-1h-14c-0.553,0-1,0.448-1,1v9c0,0.552,0.447,1,1,1h14c0.553,0,1-0.448,1-1V20z
				"/>
		</g>
		<g>
			<path fill="#FFFFFF" d="M503,20c0-0.552-0.447-1-1-1h-14c-0.553,0-1,0.448-1,1v9c0,0.552,0.447,1,1,1h14c0.553,0,1-0.448,1-1V20z
				"/>
		</g>
		<g>
			<path fill="#FFFFFF" d="M484,20c0-0.552-0.447-1-1-1h-14c-0.553,0-1,0.448-1,1v9c0,0.552,0.447,1,1,1h14c0.553,0,1-0.448,1-1V20z
				"/>
		</g>
		<g>
			<path fill="#FFFFFF" d="M465,20c0-0.552-0.447-1-1-1h-14c-0.553,0-1,0.448-1,1v9c0,0.552,0.447,1,1,1h14c0.553,0,1-0.448,1-1V20z
				"/>
		</g>
		<g>
			<path fill="#FFFFFF" d="M446,20c0-0.552-0.447-1-1-1h-14c-0.553,0-1,0.448-1,1v9c0,0.552,0.447,1,1,1h14c0.553,0,1-0.448,1-1V20z
				"/>
		</g>
		<g>
			<path fill="#FFFFFF" d="M427,20c0-0.552-0.447-1-1-1h-14c-0.553,0-1,0.448-1,1v9c0,0.552,0.447,1,1,1h14c0.553,0,1-0.448,1-1V20z
				"/>
		</g>
		<g>
			<path fill="#FFFFFF" d="M408,20c0-0.552-0.447-1-1-1h-14c-0.553,0-1,0.448-1,1v9c0,0.552,0.447,1,1,1h14c0.553,0,1-0.448,1-1V20z
				"/>
		</g>
		<g>
			<path fill="#FFFFFF" d="M389,20c0-0.552-0.447-1-1-1h-14c-0.553,0-1,0.448-1,1v9c0,0.552,0.447,1,1,1h14c0.553,0,1-0.448,1-1V20z
				"/>
		</g>
		<g>
			<path fill="#FFFFFF" d="M370,20c0-0.552-0.447-1-1-1h-14c-0.553,0-1,0.448-1,1v9c0,0.552,0.447,1,1,1h14c0.553,0,1-0.448,1-1V20z
				"/>
		</g>
		<g>
			<path fill="#FFFFFF" d="M351,20c0-0.552-0.447-1-1-1h-14c-0.553,0-1,0.448-1,1v9c0,0.552,0.447,1,1,1h14c0.553,0,1-0.448,1-1V20z
				"/>
		</g>
		<g>
			<path fill="#FFFFFF" d="M332,20c0-0.552-0.447-1-1-1h-14c-0.553,0-1,0.448-1,1v9c0,0.552,0.447,1,1,1h14c0.553,0,1-0.448,1-1V20z
				"/>
		</g>
	</g>
	<g>
		<g>
			<path fill="#FFFFFF" d="M851,20c0-0.552-0.447-1-1-1h-14c-0.553,0-1,0.448-1,1v9c0,0.552,0.447,1,1,1h14c0.553,0,1-0.448,1-1V20z
				"/>
		</g>
		<g>
			<path fill="#FFFFFF" d="M832,20c0-0.552-0.447-1-1-1h-14c-0.553,0-1,0.448-1,1v9c0,0.552,0.447,1,1,1h14c0.553,0,1-0.448,1-1V20z
				"/>
		</g>
		<g>
			<path fill="#FFFFFF" d="M813,20c0-0.552-0.447-1-1-1h-14c-0.553,0-1,0.448-1,1v9c0,0.552,0.447,1,1,1h14c0.553,0,1-0.448,1-1V20z
				"/>
		</g>
		<g>
			<path fill="#FFFFFF" d="M794,20c0-0.552-0.447-1-1-1h-14c-0.553,0-1,0.448-1,1v9c0,0.552,0.447,1,1,1h14c0.553,0,1-0.448,1-1V20z
				"/>
		</g>
		<g>
			<path fill="#FFFFFF" d="M775,20c0-0.552-0.447-1-1-1h-14c-0.553,0-1,0.448-1,1v9c0,0.552,0.447,1,1,1h14c0.553,0,1-0.448,1-1V20z
				"/>
		</g>
		<g>
			<path fill="#FFFFFF" d="M756,20c0-0.552-0.447-1-1-1h-14c-0.553,0-1,0.448-1,1v9c0,0.552,0.447,1,1,1h14c0.553,0,1-0.448,1-1V20z
				"/>
		</g>
		<g>
			<path fill="#FFFFFF" d="M737,20c0-0.552-0.447-1-1-1h-14c-0.553,0-1,0.448-1,1v9c0,0.552,0.447,1,1,1h14c0.553,0,1-0.448,1-1V20z
				"/>
		</g>
		<g>
			<path fill="#FFFFFF" d="M718,20c0-0.552-0.447-1-1-1h-14c-0.553,0-1,0.448-1,1v9c0,0.552,0.447,1,1,1h14c0.553,0,1-0.448,1-1V20z
				"/>
		</g>
		<g>
			<path fill="#FFFFFF" d="M699,20c0-0.552-0.447-1-1-1h-14c-0.553,0-1,0.448-1,1v9c0,0.552,0.447,1,1,1h14c0.553,0,1-0.448,1-1V20z
				"/>
		</g>
		<g>
			<path fill="#FFFFFF" d="M680,20c0-0.552-0.447-1-1-1h-14c-0.553,0-1,0.448-1,1v9c0,0.552,0.447,1,1,1h14c0.553,0,1-0.448,1-1V20z
				"/>
		</g>
		<g>
			<path fill="#FFFFFF" d="M661,20c0-0.552-0.447-1-1-1h-14c-0.553,0-1,0.448-1,1v9c0,0.552,0.447,1,1,1h14c0.553,0,1-0.448,1-1V20z
				"/>
		</g>
		<g>
			<path fill="#FFFFFF" d="M642,20c0-0.552-0.447-1-1-1h-14c-0.553,0-1,0.448-1,1v9c0,0.552,0.447,1,1,1h14c0.553,0,1-0.448,1-1V20z
				"/>
		</g>
		<g>
			<path fill="#FFFFFF" d="M623,20c0-0.552-0.447-1-1-1h-14c-0.553,0-1,0.448-1,1v9c0,0.552,0.447,1,1,1h14c0.553,0,1-0.448,1-1V20z
				"/>
		</g>
	</g>
	<g>
		<g>
			<path fill="#FFFFFF" d="M1142,20c0-0.552-0.447-1-1-1h-14c-0.553,0-1,0.448-1,1v9c0,0.552,0.447,1,1,1h14c0.553,0,1-0.448,1-1V20
				z"/>
		</g>
		<g>
			<path fill="#FFFFFF" d="M1123,20c0-0.552-0.447-1-1-1h-14c-0.553,0-1,0.448-1,1v9c0,0.552,0.447,1,1,1h14c0.553,0,1-0.448,1-1V20
				z"/>
		</g>
		<g>
			<path fill="#FFFFFF" d="M1104,20c0-0.552-0.447-1-1-1h-14c-0.553,0-1,0.448-1,1v9c0,0.552,0.447,1,1,1h14c0.553,0,1-0.448,1-1V20
				z"/>
		</g>
		<g>
			<path fill="#FFFFFF" d="M1085,20c0-0.552-0.447-1-1-1h-14c-0.553,0-1,0.448-1,1v9c0,0.552,0.447,1,1,1h14c0.553,0,1-0.448,1-1V20
				z"/>
		</g>
		<g>
			<path fill="#FFFFFF" d="M1066,20c0-0.552-0.447-1-1-1h-14c-0.553,0-1,0.448-1,1v9c0,0.552,0.447,1,1,1h14c0.553,0,1-0.448,1-1V20
				z"/>
		</g>
		<g>
			<path fill="#FFFFFF" d="M1047,20c0-0.552-0.447-1-1-1h-14c-0.553,0-1,0.448-1,1v9c0,0.552,0.447,1,1,1h14c0.553,0,1-0.448,1-1V20
				z"/>
		</g>
		<g>
			<path fill="#FFFFFF" d="M1028,20c0-0.552-0.447-1-1-1h-14c-0.553,0-1,0.448-1,1v9c0,0.552,0.447,1,1,1h14c0.553,0,1-0.448,1-1V20
				z"/>
		</g>
		<g>
			<path fill="#FFFFFF" d="M1009,20c0-0.552-0.447-1-1-1h-14c-0.553,0-1,0.448-1,1v9c0,0.552,0.447,1,1,1h14c0.553,0,1-0.448,1-1V20
				z"/>
		</g>
		<g>
			<path fill="#FFFFFF" d="M990,20c0-0.552-0.447-1-1-1h-14c-0.553,0-1,0.448-1,1v9c0,0.552,0.447,1,1,1h14c0.553,0,1-0.448,1-1V20z
				"/>
		</g>
		<g>
			<path fill="#FFFFFF" d="M971,20c0-0.552-0.447-1-1-1h-14c-0.553,0-1,0.448-1,1v9c0,0.552,0.447,1,1,1h14c0.553,0,1-0.448,1-1V20z
				"/>
		</g>
		<g>
			<path fill="#FFFFFF" d="M952,20c0-0.552-0.447-1-1-1h-14c-0.553,0-1,0.448-1,1v9c0,0.552,0.447,1,1,1h14c0.553,0,1-0.448,1-1V20z
				"/>
		</g>
		<g>
			<path fill="#FFFFFF" d="M933,20c0-0.552-0.447-1-1-1h-14c-0.553,0-1,0.448-1,1v9c0,0.552,0.447,1,1,1h14c0.553,0,1-0.448,1-1V20z
				"/>
		</g>
		<g>
			<path fill="#FFFFFF" d="M914,20c0-0.552-0.447-1-1-1h-14c-0.553,0-1,0.448-1,1v9c0,0.552,0.447,1,1,1h14c0.553,0,1-0.448,1-1V20z
				"/>
		</g>
	</g>
</g>
<line fill="none" stroke="#FFFFFF" stroke-width="3" stroke-miterlimit="10" x1="11" y1="37.5" x2="1450" y2="37.5"/>
<line fill="none" stroke="#FFFFFF" stroke-width="3" stroke-miterlimit="10" x1="11" y1="45.375" x2="1458.286" y2="45.5"/>
</svg>
