<?xml version="1.0" encoding="utf-8"?>
<!-- Generator: Adobe Illustrator 16.0.0, SVG Export Plug-In . SVG Version: 6.00 Build 0)  -->
<!DOCTYPE svg PUBLIC "-//W3C//DTD SVG 1.1//EN" "http://www.w3.org/Graphics/SVG/1.1/DTD/svg11.dtd">
<svg version="1.1" id="Layer_1" xmlns="http://www.w3.org/2000/svg" xmlns:xlink="http://www.w3.org/1999/xlink" x="0px" y="0px"
	 width="198.971px" height="320px" viewBox="0 0 198.971 320" enable-background="new 0 0 198.971 320" xml:space="preserve">
<g>
	<circle cx="104.231" cy="38.004" r="26.704"/>
	<path d="M114.742,181.146c-0.25,3.149-3.006,5.499-6.154,5.249l-41.135-3.266c-3.149-0.25-5.5-3.006-5.25-6.154L73.691,70.628
		c0.25-3.149,1.697-6.156,4.846-5.906l36.343,3.483c3.15,0.25,6.762,0.788,6.512,3.937L114.742,181.146z"/>
	<g>
		<path fill="none" stroke="#000000" stroke-width="24.961" stroke-miterlimit="10" d="M83.991,73.736l-53.958,37.356
			c-0.471,0.325-0.917,1.056-0.993,1.623l-6.89,51.691"/>
	</g>
	<g>
		<path fill="none" stroke="#000000" stroke-width="24.961" stroke-miterlimit="10" d="M111.397,78.838l37.346,52.561
			c0.331,0.466,1.053,0.977,1.603,1.134l43.271,12.363"/>
	</g>
	<g>
		<path fill="none" stroke="#000000" stroke-width="31.2013" stroke-miterlimit="10" d="M78.213,173.004L65.9,242.956
			c-0.1,0.563-0.457,1.401-0.796,1.863L27.07,296.685"/>
	</g>
	<g>
		<path fill="none" stroke="#000000" stroke-width="31.2013" stroke-miterlimit="10" d="M96.641,173.004l49.271,65.927
			c0.343,0.458,0.623,1.301,0.623,1.873v59.395"/>
	</g>
	<path d="M8.656,159.698c-0.541,3.112,2.798,6.294,7.46,7.104l9.168,1.596c4.661,0.812,8.88-1.054,9.422-4.167l2.467-14.198
		c0.541-3.111-2.8-6.293-7.461-7.104l-9.167-1.595c-4.662-0.811-8.881,1.055-9.423,4.167L8.656,159.698z"/>
	<path d="M170.623,146.289c-0.889,3.127,1.892,6.657,6.21,7.885l8.491,2.411c4.318,1.226,8.54-0.311,9.43-3.436l4.052-14.265
		c0.888-3.127-1.892-6.657-6.21-7.885l-8.492-2.414c-4.317-1.228-8.54,0.312-9.429,3.438L170.623,146.289z"/>
	<path d="M15.47,284.66c-1.946,2.488,0.188,7.408,4.767,10.988l9.004,7.037c4.577,3.58,9.867,4.465,11.813,1.975l8.872-11.355
		c1.945-2.488-0.188-7.408-4.767-10.987l-9.004-7.038c-4.578-3.579-9.868-4.464-11.813-1.975L15.47,284.66z"/>
	<path d="M130.729,300.079c-0.108,3.158,4.322,5.874,9.896,6.065l10.963,0.378c5.573,0.193,10.181-2.21,10.29-5.368l0.492-14.402
		c0.109-3.157-4.322-5.873-9.896-6.064l-10.963-0.378c-5.574-0.192-10.183,2.211-10.291,5.368L130.729,300.079z"/>
	<g>
		<g>
			<path fill="#FFFFFF" d="M78.537,62.06c-2.397-0.112-4.553,0.56-6.713,1.54c-1.525,0.691-0.202,2.932,1.313,2.245
				c1.746-0.792,3.471-1.275,5.4-1.185C80.214,64.738,80.207,62.137,78.537,62.06L78.537,62.06z"/>
		</g>
	</g>
</g>
</svg>
